<svg xmlns="http://www.w3.org/2000/svg" xmlns:xlink="http://www.w3.org/1999/xlink" width="979.9" height="530.13" viewBox="0 0 979.9 530.13">
  <defs>
    <clipPath id="clip-path">
      <path id="SVGID" d="M545.5,536.5l-170.6-1.4V506.2l165.6,2Z" fill="none"/>
    </clipPath>
    <clipPath id="clip-path-2">
      <path id="SVGID-2" data-name="SVGID" d="M436.8,283.1s-3-6.2-10.4-2.5-38.6,15.2-58.7,33.2c-20.1,18.1-87.4,95.2-66.9,135.4s51.8,50.4,70.7,71.5,32.5,19.7,50,2.2,6.8-53.7,6.8-53.7l20.3-8.9L464.8,488l31.5,14.8,79.1-26.4,23.7-58.8s-18.2-86.2-33.8-101.5S515,282,515,282Z" fill="none"/>
    </clipPath>
    <clipPath id="clip-path-3">
      <path id="SVGID-3" data-name="SVGID" d="M511.2,269.1s30,31.7,28.9,46.2-10.4,19.8-18,7.2-4.9,22.8-11.3,27.4c-6.3,4.6-10.1,18.3-10.1,18.3s.2-49.5,8.4-60.6c5.4-7.3-14.8-34.3-14.8-34.3l3.7-14.6Z" fill="none"/>
    </clipPath>
    <clipPath id="clip-path-5">
      <path id="SVGID-5" data-name="SVGID" d="M432.1,276.1s19.6-27.8,25-24c5.5,3.8,11.3,39.4,37.9,52,0,0,10.5,3.8,8.2,18.3s-.8,36.5-.8,36.5-4.5-15.2-13.2-26.1c-4.6,6.2-4.2,9.4-13.3,14.6C455.8,334.1,423.1,292.3,432.1,276.1Z" fill="none"/>
    </clipPath>
    <clipPath id="clip-path-6">
      <path id="SVGID-6" data-name="SVGID" d="M570.6,499.6H482.4l1.2-12.1L578.4,444l40.8,34.9Z" fill="none"/>
    </clipPath>
    <clipPath id="clip-path-7">
      <path id="SVGID-7" data-name="SVGID" d="M562.8,375.3,707.3,328a3.919,3.919,0,0,1,5.1,4.2L698.6,438.1a13.523,13.523,0,0,1-8.2,10.8L573.6,498.8a8.906,8.906,0,0,1-12.4-7.8l-5.5-105.4A10.2,10.2,0,0,1,562.8,375.3Z" fill="none"/>
    </clipPath>
    <clipPath id="clip-path-9">
      <path id="SVGID-9" data-name="SVGID" d="M523.6,500.3l-17.4-2a38.019,38.019,0,0,0-4.5-3.2c1.8-.1,3.7-.2,5.7-.5,17.9-2.7,13.3-17.6,13.3-17.6s-6.3.7-15.4,2.2c-9.1,1.4-18.6-8.5-27.3-11.6-4.9-1.7-13.4-.7-19.7.6L443,463.8l-13.6,46.6L451,535.6a18.882,18.882,0,0,0,7.9,5.5l5,1.9a20.034,20.034,0,0,0,6.9,1.2c5.5,0,15.5-.4,18.3-2.1,2.6-1.5,3.4-5.4,3.6-7.9.7-.3,1.4-.6,2-.9,5-2.7,5.2-8.2,5.1-10.6a17.189,17.189,0,0,0,4.4-.5c3.1-.8,3.9-4.9,4-8.2a16.812,16.812,0,0,0,4.9.2c6.7-1.3,11.9-14.5,11.9-14.5A7.712,7.712,0,0,1,523.6,500.3Z" fill="none"/>
    </clipPath>
    <clipPath id="clip-path-11">
      <path id="SVGID-11" data-name="SVGID" d="M511.2,243.7s4.1,1.9,11.5-2.3c0,0-3.9,9.4-7.7,9.8C511.3,251.6,511.2,243.7,511.2,243.7Z" fill="none"/>
    </clipPath>
    <clipPath id="clip-path-12">
      <path id="SVGID-12" data-name="SVGID" d="M537.282,325.437S524.458,410.76,527.769,426.4s4.859,19.8,4.859,19.8L537,460.9S557.836,386.7,537.282,325.437Z" fill="none"/>
    </clipPath>
    <clipPath id="clip-path-13">
      <path id="SVGID-13" data-name="SVGID" d="M659.118,412.368s-14.369,16.963-17.154,20,13.963,4.737,13.963,4.737l9.842-14.411-4.974-9.436Z" fill="none"/>
    </clipPath>
  </defs>
  <g id="组_654" data-name="组 654" transform="translate(-121.984 -269.908)">
    <g id="组_603" data-name="组 603" transform="translate(24.384 171.938)">
      <path id="路径_473" data-name="路径 473" d="M847.1,546.5H294a24.113,24.113,0,0,1-24.1-24.1V209A24.113,24.113,0,0,1,294,184.9H847.1A24.113,24.113,0,0,1,871.2,209V522.4A24.113,24.113,0,0,1,847.1,546.5Z" fill="#e6e9f4"/>
      <g id="组_541" data-name="组 541">
        <path id="路径_474" data-name="路径 474" d="M870.3,523.9h-553a24.113,24.113,0,0,1-24.1-24.1V186.4a24.113,24.113,0,0,1,24.1-24.1H870.4a24.113,24.113,0,0,1,24.1,24.1V499.8A24.2,24.2,0,0,1,870.3,523.9Z" fill="#fff" stroke="#e6e9f4" stroke-miterlimit="10" stroke-width="1"/>
        <line id="直线_204" data-name="直线 204" x2="612.8" transform="translate(281.6 204.8)" fill="none" stroke="#e6e9f4" stroke-miterlimit="10" stroke-width="1"/>
        <circle id="椭圆_301" data-name="椭圆 301" cx="5.4" cy="5.4" r="5.4" transform="translate(316.8 180.3)" fill="#ff6246"/>
        <circle id="椭圆_302" data-name="椭圆 302" cx="5.4" cy="5.4" r="5.4" transform="translate(334.6 180.3)" fill="#7384f3"/>
        <circle id="椭圆_303" data-name="椭圆 303" cx="5.4" cy="5.4" r="5.4" transform="translate(352.5 180.3)" fill="#40da97"/>
        <path id="路径_475" data-name="路径 475" d="M807.9,190.2h-6.3a3.842,3.842,0,0,1-3.9-3.9h0a3.842,3.842,0,0,1,3.9-3.9h6.3a3.842,3.842,0,0,1,3.9,3.9h0A3.842,3.842,0,0,1,807.9,190.2Z" fill="#e6e9f4"/>
      </g>
      <path id="路径_476" data-name="路径 476" d="M567.1,251.9H379.7a5.8,5.8,0,0,1-5.8-5.8V233.8a5.8,5.8,0,0,1,5.8-5.8H567.1a5.8,5.8,0,0,1,5.8,5.8v12.3A5.741,5.741,0,0,1,567.1,251.9Z" fill="#e6e9f4" stroke="#fff" stroke-miterlimit="10" stroke-width="1"/>
      <path id="路径_477" data-name="路径 477" d="M569.8,276.2H422.5a3.159,3.159,0,0,1-3.2-3.2h0a3.159,3.159,0,0,1,3.2-3.2H569.8A3.159,3.159,0,0,1,573,273h0A3.222,3.222,0,0,1,569.8,276.2Z" fill="#e6e9f4" stroke="#fff" stroke-miterlimit="10" stroke-width="1"/>
      <path id="路径_478" data-name="路径 478" d="M569.8,296.5H422.5a3.159,3.159,0,0,1-3.2-3.2h0a3.159,3.159,0,0,1,3.2-3.2H569.8a3.159,3.159,0,0,1,3.2,3.2h0A3.222,3.222,0,0,1,569.8,296.5Z" fill="#e6e9f4" stroke="#fff" stroke-miterlimit="10" stroke-width="1"/>
      <path id="路径_479" data-name="路径 479" d="M569.8,316.8H422.5a3.159,3.159,0,0,1-3.2-3.2h0a3.159,3.159,0,0,1,3.2-3.2H569.8a3.159,3.159,0,0,1,3.2,3.2h0A3.222,3.222,0,0,1,569.8,316.8Z" fill="#e6e9f4" stroke="#fff" stroke-miterlimit="10" stroke-width="1"/>
      <path id="路径_480" data-name="路径 480" d="M569.8,337.1h-237a3.159,3.159,0,0,1-3.2-3.2h0a3.159,3.159,0,0,1,3.2-3.2h237a3.159,3.159,0,0,1,3.2,3.2h0A3.29,3.29,0,0,1,569.8,337.1Z" fill="#e6e9f4" stroke="#fff" stroke-miterlimit="10" stroke-width="1"/>
      <circle id="椭圆_304" data-name="椭圆 304" cx="47.5" cy="47.5" r="47.5" transform="translate(321.6 217.7)" fill="#e6e9f4" stroke="#fff" stroke-linecap="round" stroke-linejoin="round" stroke-width="8"/>
      <circle id="椭圆_305" data-name="椭圆 305" cx="21.4" cy="21.4" r="21.4" transform="translate(399 264.4)" fill="#e6e9f4" stroke="#fff" stroke-linecap="round" stroke-linejoin="round" stroke-width="8"/>
      <g id="组_542" data-name="组 542">
        <path id="路径_481" data-name="路径 481" d="M615.4,188.7h-183a20.528,20.528,0,0,1-20.5-20.5V154.5A20.528,20.528,0,0,1,432.4,134h183a20.528,20.528,0,0,1,20.5,20.5v13.7A20.528,20.528,0,0,1,615.4,188.7Z" fill="#e6e9f4"/>
        <path id="路径_482" data-name="路径 482" d="M626.4,178.4h-183a20.528,20.528,0,0,1-20.5-20.5V144.2a20.528,20.528,0,0,1,20.5-20.5h183a20.528,20.528,0,0,1,20.5,20.5v13.7A20.528,20.528,0,0,1,626.4,178.4Z" fill="#fff" stroke="#e6e9f4" stroke-miterlimit="10" stroke-width="1"/>
        <path id="路径_483" data-name="路径 483" d="M620.5,154.2h-141a3.159,3.159,0,0,1-3.2-3.2h0a3.159,3.159,0,0,1,3.2-3.2h141a3.159,3.159,0,0,1,3.2,3.2h0A3.289,3.289,0,0,1,620.5,154.2Z" fill="#e6e9f4" stroke="#fff" stroke-miterlimit="10" stroke-width="1"/>
        <circle id="椭圆_306" data-name="椭圆 306" cx="11.3" cy="11.3" r="11.3" transform="translate(446.1 139.7)" fill="#e6e9f4" stroke="#fff" stroke-linecap="round" stroke-linejoin="round" stroke-width="2"/>
      </g>
      <g id="组_544" data-name="组 544">
        <path id="路径_484" data-name="路径 484" d="M707.8,494.5H635.7a21.254,21.254,0,0,1-21.3-21.3V253.6a21.254,21.254,0,0,1,21.3-21.3h72.1a21.254,21.254,0,0,1,21.3,21.3V473.2A21.254,21.254,0,0,1,707.8,494.5Z" fill="#fff" stroke="#e6e9f4" stroke-miterlimit="10" stroke-width="4"/>
        <g id="组_543" data-name="组 543">
          <path id="路径_485" data-name="路径 485" d="M671.7,336.2V307.8a28.489,28.489,0,1,0,23,11.8Z" fill="#e6e9f4" stroke="#fff" stroke-linecap="round" stroke-linejoin="round" stroke-width="5"/>
          <path id="路径_486" data-name="路径 486" d="M698.3,317.5a32.83,32.83,0,0,0-26.9-14v33.8Z" fill="#e6e9f4" stroke="#fff" stroke-linecap="round" stroke-linejoin="round" stroke-width="5"/>
        </g>
        <path id="路径_487" data-name="路径 487" d="M712.9,292.5h-83a2.263,2.263,0,0,1-2.3-2.3h0a2.263,2.263,0,0,1,2.3-2.3h83a2.263,2.263,0,0,1,2.3,2.3h0A2.326,2.326,0,0,1,712.9,292.5Z" fill="#e6e9f4"/>
        <path id="路径_488" data-name="路径 488" d="M712.9,440h-83a2.263,2.263,0,0,1-2.3-2.3h0a2.263,2.263,0,0,1,2.3-2.3h83a2.263,2.263,0,0,1,2.3,2.3h0A2.326,2.326,0,0,1,712.9,440Z" fill="#e6e9f4"/>
        <path id="路径_489" data-name="路径 489" d="M712.9,458.1h-83a2.263,2.263,0,0,1-2.3-2.3h0a2.263,2.263,0,0,1,2.3-2.3h83a2.263,2.263,0,0,1,2.3,2.3h0A2.326,2.326,0,0,1,712.9,458.1Z" fill="#e6e9f4"/>
        <path id="路径_490" data-name="路径 490" d="M698.3,379.9H644.5a2.263,2.263,0,0,1-2.3-2.3h0a2.263,2.263,0,0,1,2.3-2.3h53.8a2.263,2.263,0,0,1,2.3,2.3h0A2.326,2.326,0,0,1,698.3,379.9Z" fill="#e6e9f4"/>
        <path id="路径_491" data-name="路径 491" d="M651.8,424H633.4a5.8,5.8,0,0,1-5.8-5.8v-8.1a5.8,5.8,0,0,1,5.8-5.8h18.4a5.8,5.8,0,0,1,5.8,5.8v8.1A5.8,5.8,0,0,1,651.8,424Z" fill="#e6e9f4" stroke="#fff" stroke-miterlimit="10" stroke-width="1"/>
        <path id="路径_492" data-name="路径 492" d="M709.5,424H670.7a5.8,5.8,0,0,1-5.8-5.8v-8.1a5.8,5.8,0,0,1,5.8-5.8h38.8a5.8,5.8,0,0,1,5.8,5.8v8.1A5.8,5.8,0,0,1,709.5,424Z" fill="#e6e9f4" stroke="#fff" stroke-miterlimit="10" stroke-width="1"/>
        <path id="路径_493" data-name="路径 493" d="M709.5,278.2H633.4a5.8,5.8,0,0,1-5.8-5.8v-8.1a5.8,5.8,0,0,1,5.8-5.8h76.1a5.8,5.8,0,0,1,5.8,5.8v8.1A5.8,5.8,0,0,1,709.5,278.2Z" fill="#e6e9f4" stroke="#fff" stroke-miterlimit="10" stroke-width="1"/>
        <path id="路径_494" data-name="路径 494" d="M840.2,494.5H768a21.254,21.254,0,0,1-21.3-21.3V253.6A21.254,21.254,0,0,1,768,232.3h72.1a21.254,21.254,0,0,1,21.3,21.3V473.2A21.169,21.169,0,0,1,840.2,494.5Z" fill="#fff" stroke="#e6e9f4" stroke-miterlimit="10" stroke-width="4"/>
        <path id="路径_495" data-name="路径 495" d="M845.2,265.4h-83a2.263,2.263,0,0,1-2.3-2.3h0a2.263,2.263,0,0,1,2.3-2.3h83a2.263,2.263,0,0,1,2.3,2.3h0A2.262,2.262,0,0,1,845.2,265.4Z" fill="#e6e9f4"/>
        <path id="路径_496" data-name="路径 496" d="M845.2,282.9h-83a2.263,2.263,0,0,1-2.3-2.3h0a2.263,2.263,0,0,1,2.3-2.3h83a2.263,2.263,0,0,1,2.3,2.3h0A2.2,2.2,0,0,1,845.2,282.9Z" fill="#e6e9f4"/>
        <path id="路径_497" data-name="路径 497" d="M845.2,431h-83a2.263,2.263,0,0,1-2.3-2.3h0a2.263,2.263,0,0,1,2.3-2.3h83a2.263,2.263,0,0,1,2.3,2.3h0A2.262,2.262,0,0,1,845.2,431Z" fill="#e6e9f4"/>
        <path id="路径_498" data-name="路径 498" d="M845.2,444.5h-83a2.263,2.263,0,0,1-2.3-2.3h0a2.263,2.263,0,0,1,2.3-2.3h83a2.263,2.263,0,0,1,2.3,2.3h0A2.2,2.2,0,0,1,845.2,444.5Z" fill="#e6e9f4"/>
        <path id="路径_499" data-name="路径 499" d="M845.2,458.1h-83a2.263,2.263,0,0,1-2.3-2.3h0a2.263,2.263,0,0,1,2.3-2.3h83a2.263,2.263,0,0,1,2.3,2.3h0A2.262,2.262,0,0,1,845.2,458.1Z" fill="#e6e9f4"/>
        <path id="路径_500" data-name="路径 500" d="M830.6,379.9H776.8a2.263,2.263,0,0,1-2.3-2.3h0a2.263,2.263,0,0,1,2.3-2.3h53.8a2.263,2.263,0,0,1,2.3,2.3h0A2.262,2.262,0,0,1,830.6,379.9Z" fill="#e6e9f4"/>
        <path id="路径_501" data-name="路径 501" d="M768.8,363.1V317.7a2.263,2.263,0,0,1,2.3-2.3h0a2.263,2.263,0,0,1,2.3,2.3v45.4a2.263,2.263,0,0,1-2.3,2.3h0A2.2,2.2,0,0,1,768.8,363.1Z" fill="#e6e9f4"/>
        <path id="路径_502" data-name="路径 502" d="M781.4,363.1V337.2a2.263,2.263,0,0,1,2.3-2.3h0a2.263,2.263,0,0,1,2.3,2.3v25.9a2.263,2.263,0,0,1-2.3,2.3h0A2.262,2.262,0,0,1,781.4,363.1Z" fill="#e6e9f4"/>
        <path id="路径_503" data-name="路径 503" d="M794,363.1V309.3a2.263,2.263,0,0,1,2.3-2.3h0a2.263,2.263,0,0,1,2.3,2.3v53.8a2.263,2.263,0,0,1-2.3,2.3h0A2.262,2.262,0,0,1,794,363.1Z" fill="#e6e9f4"/>
        <path id="路径_504" data-name="路径 504" d="M806.6,363.1V326.3a2.263,2.263,0,0,1,2.3-2.3h0a2.263,2.263,0,0,1,2.3,2.3v36.8a2.263,2.263,0,0,1-2.3,2.3h0A2.262,2.262,0,0,1,806.6,363.1Z" fill="#e6e9f4"/>
        <path id="路径_505" data-name="路径 505" d="M819.2,363.1V352.5a2.263,2.263,0,0,1,2.3-2.3h0a2.263,2.263,0,0,1,2.3,2.3v10.6a2.263,2.263,0,0,1-2.3,2.3h0A2.262,2.262,0,0,1,819.2,363.1Z" fill="#e6e9f4"/>
        <path id="路径_506" data-name="路径 506" d="M831.8,363.1V333.4a2.263,2.263,0,0,1,2.3-2.3h0a2.263,2.263,0,0,1,2.3,2.3v29.7a2.263,2.263,0,0,1-2.3,2.3h0A2.262,2.262,0,0,1,831.8,363.1Z" fill="#e6e9f4"/>
        <path id="路径_507" data-name="路径 507" d="M784.1,416H765.7a5.8,5.8,0,0,1-5.8-5.8v-8.1a5.8,5.8,0,0,1,5.8-5.8h18.4a5.8,5.8,0,0,1,5.8,5.8v8.1A5.68,5.68,0,0,1,784.1,416Z" fill="#e6e9f4" stroke="#fff" stroke-miterlimit="10" stroke-width="1"/>
        <path id="路径_508" data-name="路径 508" d="M841.8,416H803a5.8,5.8,0,0,1-5.8-5.8v-8.1a5.8,5.8,0,0,1,5.8-5.8h38.8a5.8,5.8,0,0,1,5.8,5.8v8.1A5.68,5.68,0,0,1,841.8,416Z" fill="#e6e9f4" stroke="#fff" stroke-miterlimit="10" stroke-width="1"/>
      </g>
      <g id="组_555" data-name="组 555">
        <path id="路径_509" data-name="路径 509" d="M1039.9,438.3H828.1A24.113,24.113,0,0,1,804,414.2V298.3a24.113,24.113,0,0,1,24.1-24.1H1040a24.113,24.113,0,0,1,24.1,24.1V414.2A24.2,24.2,0,0,1,1039.9,438.3Z" fill="#e6e9f4"/>
        <path id="路径_510" data-name="路径 510" d="M1050,428H838.1A24.113,24.113,0,0,1,814,403.9V288.1A24.113,24.113,0,0,1,838.1,264H1050a24.113,24.113,0,0,1,24.1,24.1V404A24.028,24.028,0,0,1,1050,428Z" fill="#fff" stroke="#e6e9f4" stroke-miterlimit="10" stroke-width="1"/>
        <line id="直线_205" data-name="直线 205" x2="260.1" transform="translate(814 300.5)" fill="none" stroke="#e6e9f4" stroke-miterlimit="10" stroke-width="1"/>
        <circle id="椭圆_307" data-name="椭圆 307" cx="4.6" cy="4.6" r="4.6" transform="translate(831.8 279.5)" fill="#ff6246"/>
        <circle id="椭圆_308" data-name="椭圆 308" cx="4.6" cy="4.6" r="4.6" transform="translate(847.1 279.5)" fill="#7384f3"/>
        <circle id="椭圆_309" data-name="椭圆 309" cx="4.6" cy="4.6" r="4.6" transform="translate(862.5 279.5)" fill="#40da97"/>
        <path id="路径_511" data-name="路径 511" d="M1052.9,288h-36.7a3.372,3.372,0,0,1-3.4-3.4h0a3.372,3.372,0,0,1,3.4-3.4h36.7a3.372,3.372,0,0,1,3.4,3.4h0A3.5,3.5,0,0,1,1052.9,288Z" fill="#e6e9f4"/>
        <path id="路径_512" data-name="路径 512" d="M1003.8,288h-5.4a3.372,3.372,0,0,1-3.4-3.4h0a3.372,3.372,0,0,1,3.4-3.4h5.4a3.372,3.372,0,0,1,3.4,3.4h0A3.5,3.5,0,0,1,1003.8,288Z" fill="#e6e9f4"/>
        <path id="路径_513" data-name="路径 513" d="M857.5,368.5H836.6a8.237,8.237,0,0,1-8.2-8.2h0a8.237,8.237,0,0,1,8.2-8.2h20.9a8.237,8.237,0,0,1,8.2,8.2h0A8.237,8.237,0,0,1,857.5,368.5Z" fill="#e6e9f4"/>
        <path id="路径_514" data-name="路径 514" d="M912.1,324.9H894.7a4.7,4.7,0,0,1-4.7-4.7h0a4.7,4.7,0,0,1,4.7-4.7h17.4a4.7,4.7,0,0,1,4.7,4.7h0A4.76,4.76,0,0,1,912.1,324.9Z" fill="#e6e9f4"/>
        <path id="路径_515" data-name="路径 515" d="M912.1,344.9H894.7a4.7,4.7,0,0,1-4.7-4.7h0a4.7,4.7,0,0,1,4.7-4.7h17.4a4.7,4.7,0,0,1,4.7,4.7h0A4.7,4.7,0,0,1,912.1,344.9Z" fill="#e6e9f4"/>
        <path id="路径_516" data-name="路径 516" d="M912.1,365H894.7a4.7,4.7,0,0,1-4.7-4.7h0a4.7,4.7,0,0,1,4.7-4.7h17.4a4.7,4.7,0,0,1,4.7,4.7h0A4.7,4.7,0,0,1,912.1,365Z" fill="#e6e9f4"/>
        <path id="路径_517" data-name="路径 517" d="M912.1,385H894.7a4.7,4.7,0,0,1-4.7-4.7h0a4.7,4.7,0,0,1,4.7-4.7h17.4a4.7,4.7,0,0,1,4.7,4.7h0A4.7,4.7,0,0,1,912.1,385Z" fill="#e6e9f4"/>
        <path id="路径_518" data-name="路径 518" d="M912.1,405.1H894.7a4.7,4.7,0,0,1-4.7-4.7h0a4.7,4.7,0,0,1,4.7-4.7h17.4a4.7,4.7,0,0,1,4.7,4.7h0A4.7,4.7,0,0,1,912.1,405.1Z" fill="#e6e9f4"/>
        <path id="路径_519" data-name="路径 519" d="M889.9,320.1h0A15.876,15.876,0,0,0,874,336v48.5a15.876,15.876,0,0,0,15.9,15.9h0" fill="none" stroke="#e6e9f4" stroke-miterlimit="10" stroke-width="1"/>
        <path id="路径_520" data-name="路径 520" d="M889.9,340.2h0A15.876,15.876,0,0,0,874,356.1v8.4a15.876,15.876,0,0,0,15.9,15.9h0" fill="none" stroke="#e6e9f4" stroke-miterlimit="10" stroke-width="1"/>
        <path id="路径_521" data-name="路径 521" d="M997.5,360.2h5.8a10.029,10.029,0,0,1,10,10h0a10.029,10.029,0,0,1-10,10h-5.8" fill="none" stroke="#e6e9f4" stroke-miterlimit="10" stroke-width="1"/>
        <line id="直线_206" data-name="直线 206" x1="24" transform="translate(864.5 360.2)" fill="none" stroke="#e6e9f4" stroke-miterlimit="10" stroke-width="1"/>
        <circle id="椭圆_310" data-name="椭圆 310" cx="1.8" cy="1.8" r="1.8" transform="translate(863.7 358.4)" fill="#e6e9f4"/>
        <circle id="椭圆_311" data-name="椭圆 311" cx="1.4" cy="1.4" r="1.4" transform="translate(888.5 318.7)" fill="#e6e9f4"/>
        <circle id="椭圆_312" data-name="椭圆 312" cx="1.4" cy="1.4" r="1.4" transform="translate(888.5 338.8)" fill="#e6e9f4"/>
        <circle id="椭圆_313" data-name="椭圆 313" cx="1.4" cy="1.4" r="1.4" transform="translate(888.5 358.8)" fill="#e6e9f4"/>
        <g id="组_545" data-name="组 545">
          <path id="路径_522" data-name="路径 522" d="M954.1,324.9H936.7a4.7,4.7,0,0,1-4.7-4.7h0a4.7,4.7,0,0,1,4.7-4.7h17.4a4.7,4.7,0,0,1,4.7,4.7h0A4.76,4.76,0,0,1,954.1,324.9Z" fill="#e6e9f4"/>
          <line id="直线_207" data-name="直线 207" x1="24.1" transform="translate(906.5 320.1)" fill="none" stroke="#e6e9f4" stroke-miterlimit="10" stroke-width="1"/>
          <circle id="椭圆_314" data-name="椭圆 314" cx="1.4" cy="1.4" r="1.4" transform="translate(930.6 318.7)" fill="#e6e9f4"/>
        </g>
        <g id="组_546" data-name="组 546">
          <path id="路径_523" data-name="路径 523" d="M954.1,344.9H936.7a4.7,4.7,0,0,1-4.7-4.7h0a4.7,4.7,0,0,1,4.7-4.7h17.4a4.7,4.7,0,0,1,4.7,4.7h0A4.7,4.7,0,0,1,954.1,344.9Z" fill="#e6e9f4"/>
          <line id="直线_208" data-name="直线 208" x1="24.1" transform="translate(906.5 340.2)" fill="none" stroke="#e6e9f4" stroke-miterlimit="10" stroke-width="1"/>
          <circle id="椭圆_315" data-name="椭圆 315" cx="1.4" cy="1.4" r="1.4" transform="translate(930.6 338.8)" fill="#e6e9f4"/>
        </g>
        <g id="组_547" data-name="组 547">
          <path id="路径_524" data-name="路径 524" d="M954.1,365H936.7a4.7,4.7,0,0,1-4.7-4.7h0a4.7,4.7,0,0,1,4.7-4.7h17.4a4.7,4.7,0,0,1,4.7,4.7h0A4.7,4.7,0,0,1,954.1,365Z" fill="#e6e9f4"/>
          <line id="直线_209" data-name="直线 209" x1="24.1" transform="translate(906.5 360.2)" fill="none" stroke="#e6e9f4" stroke-miterlimit="10" stroke-width="1"/>
          <circle id="椭圆_316" data-name="椭圆 316" cx="1.4" cy="1.4" r="1.4" transform="translate(930.6 358.8)" fill="#e6e9f4"/>
        </g>
        <g id="组_548" data-name="组 548">
          <path id="路径_525" data-name="路径 525" d="M954.1,385H936.7a4.7,4.7,0,0,1-4.7-4.7h0a4.7,4.7,0,0,1,4.7-4.7h17.4a4.7,4.7,0,0,1,4.7,4.7h0A4.7,4.7,0,0,1,954.1,385Z" fill="#e6e9f4"/>
          <line id="直线_210" data-name="直线 210" x1="24.1" transform="translate(906.5 380.3)" fill="none" stroke="#e6e9f4" stroke-miterlimit="10" stroke-width="1"/>
          <circle id="椭圆_317" data-name="椭圆 317" cx="1.4" cy="1.4" r="1.4" transform="translate(930.6 378.9)" fill="#e6e9f4"/>
        </g>
        <g id="组_549" data-name="组 549">
          <path id="路径_526" data-name="路径 526" d="M954.1,405.1H936.7a4.7,4.7,0,0,1-4.7-4.7h0a4.7,4.7,0,0,1,4.7-4.7h17.4a4.7,4.7,0,0,1,4.7,4.7h0A4.7,4.7,0,0,1,954.1,405.1Z" fill="#e6e9f4"/>
          <line id="直线_211" data-name="直线 211" x1="24.1" transform="translate(906.5 400.4)" fill="none" stroke="#e6e9f4" stroke-miterlimit="10" stroke-width="1"/>
          <circle id="椭圆_318" data-name="椭圆 318" cx="1.4" cy="1.4" r="1.4" transform="translate(930.6 399)" fill="#e6e9f4"/>
        </g>
        <g id="组_550" data-name="组 550">
          <path id="路径_527" data-name="路径 527" d="M995.2,344.9H977.8a4.7,4.7,0,0,1-4.7-4.7h0a4.7,4.7,0,0,1,4.7-4.7h17.4a4.7,4.7,0,0,1,4.7,4.7h0A4.7,4.7,0,0,1,995.2,344.9Z" fill="#e6e9f4"/>
          <line id="直线_212" data-name="直线 212" x1="24" transform="translate(947.6 340.2)" fill="none" stroke="#e6e9f4" stroke-miterlimit="10" stroke-width="1"/>
          <circle id="椭圆_319" data-name="椭圆 319" cx="1.4" cy="1.4" r="1.4" transform="translate(971.6 338.8)" fill="#e6e9f4"/>
        </g>
        <g id="组_551" data-name="组 551">
          <path id="路径_528" data-name="路径 528" d="M995.2,365H977.8a4.7,4.7,0,0,1-4.7-4.7h0a4.7,4.7,0,0,1,4.7-4.7h17.4a4.7,4.7,0,0,1,4.7,4.7h0A4.7,4.7,0,0,1,995.2,365Z" fill="#e6e9f4"/>
          <line id="直线_213" data-name="直线 213" x1="24" transform="translate(947.6 360.2)" fill="none" stroke="#e6e9f4" stroke-miterlimit="10" stroke-width="1"/>
          <circle id="椭圆_320" data-name="椭圆 320" cx="1.4" cy="1.4" r="1.4" transform="translate(971.6 358.8)" fill="#e6e9f4"/>
        </g>
        <g id="组_552" data-name="组 552">
          <path id="路径_529" data-name="路径 529" d="M995.2,385H977.8a4.7,4.7,0,0,1-4.7-4.7h0a4.7,4.7,0,0,1,4.7-4.7h17.4a4.7,4.7,0,0,1,4.7,4.7h0A4.7,4.7,0,0,1,995.2,385Z" fill="#e6e9f4"/>
          <line id="直线_214" data-name="直线 214" x1="24" transform="translate(947.6 380.3)" fill="none" stroke="#e6e9f4" stroke-miterlimit="10" stroke-width="1"/>
          <circle id="椭圆_321" data-name="椭圆 321" cx="1.4" cy="1.4" r="1.4" transform="translate(971.6 378.9)" fill="#e6e9f4"/>
        </g>
        <g id="组_553" data-name="组 553">
          <path id="路径_530" data-name="路径 530" d="M1036.2,344.9h-17.4a4.7,4.7,0,0,1-4.7-4.7h0a4.7,4.7,0,0,1,4.7-4.7h17.4a4.7,4.7,0,0,1,4.7,4.7h0A4.7,4.7,0,0,1,1036.2,344.9Z" fill="#e6e9f4"/>
          <line id="直线_215" data-name="直线 215" x1="24" transform="translate(988.7 340.2)" fill="none" stroke="#e6e9f4" stroke-miterlimit="10" stroke-width="1"/>
          <circle id="椭圆_322" data-name="椭圆 322" cx="1.4" cy="1.4" r="1.4" transform="translate(1012.7 338.8)" fill="#e6e9f4"/>
        </g>
        <g id="组_554" data-name="组 554">
          <path id="路径_531" data-name="路径 531" d="M1040.3,375h-17.4a4.7,4.7,0,0,1-4.7-4.7h0a4.7,4.7,0,0,1,4.7-4.7h17.4a4.7,4.7,0,0,1,4.7,4.7h0A4.7,4.7,0,0,1,1040.3,375Z" fill="#e6e9f4"/>
          <line id="直线_216" data-name="直线 216" x1="3.3" transform="translate(1013.4 370.3)" fill="none" stroke="#e6e9f4" stroke-miterlimit="10" stroke-width="1"/>
          <circle id="椭圆_323" data-name="椭圆 323" cx="1.4" cy="1.4" r="1.4" transform="translate(1016.7 368.9)" fill="#e6e9f4"/>
        </g>
        <circle id="椭圆_324" data-name="椭圆 324" cx="1.4" cy="1.4" r="1.4" transform="translate(888.5 378.9)" fill="#e6e9f4"/>
        <circle id="椭圆_325" data-name="椭圆 325" cx="1.4" cy="1.4" r="1.4" transform="translate(893.2 399)" fill="#e6e9f4"/>
        <path id="路径_532" data-name="路径 532" d="M1008,405.3a88.666,88.666,0,0,0,13.3-15.3,1.592,1.592,0,0,1,2.9,1.1l-.5,3.3a1.554,1.554,0,0,0,2.2,1.6l1.8-.8a1.562,1.562,0,0,1,2.1,1.9l-.2.5a1.544,1.544,0,0,0,2.3,1.8l4.5-2.8a1.561,1.561,0,0,1,2.3.9h0a1.512,1.512,0,0,0,2.5.7l1.6-1.4c.1-.1.2-.3.3-.4.4-.8,1.9-3.3,2.1-2.6.3.9,6.2,3.3,6.2,3.3" fill="none" stroke="#e6e9f4" stroke-linecap="round" stroke-linejoin="round" stroke-width="3"/>
      </g>
      <path id="路径_533" data-name="路径 533" d="M770.1,584.1S809,613.6,849.6,603c40.6-10.7,62.4-63.6,37.3-61.9-25,1.6-21.4,41.4,12.7,29.5s28-56.2,28-56.2" fill="none" stroke="#ff6246" stroke-miterlimit="10" stroke-width="2" stroke-dasharray="4.154 2.077"/>
      <g id="组_556" data-name="组 556">
        <path id="路径_534" data-name="路径 534" d="M214.7,206.1l39.7,75.7L185,257.9l19.5-34Z" fill="#e6e9f4"/>
        <path id="路径_535" data-name="路径 535" d="M186.1,226l19.4-3.8-8,13.9Z" fill="#c6ccdb"/>
        <path id="路径_536" data-name="路径 536" d="M205.5,222.2l48.9,59.6-56.9-45.7Z" fill="#c6ccdb"/>
      </g>
      <path id="路径_537" data-name="路径 537" d="M347.4,112.4s-42.6-23.9-81.4-7.8-53.1,71.5-28.5,66.5,15.5-44-16.6-27.5-20,59.5-20,59.5" fill="none" stroke="#e6e9f4" stroke-miterlimit="10" stroke-width="2" stroke-dasharray="4.154 2.077"/>
      <g id="组_557" data-name="组 557">
        <path id="路径_538" data-name="路径 538" d="M718.3,584.8H635.7a30.493,30.493,0,0,1-30.5-30.5V536.9a30.493,30.493,0,0,1,30.5-30.5h82.6a30.493,30.493,0,0,1,30.5,30.5v17.4A30.493,30.493,0,0,1,718.3,584.8Z" fill="#40da97"/>
        <circle id="椭圆_326" data-name="椭圆 326" cx="8" cy="8" r="8" transform="translate(640.1 536.8)" fill="#fff"/>
        <circle id="椭圆_327" data-name="椭圆 327" cx="8" cy="8" r="8" transform="translate(671.9 536.8)" fill="#fff"/>
        <circle id="椭圆_328" data-name="椭圆 328" cx="8" cy="8" r="8" transform="translate(703.8 536.8)" fill="#fff"/>
        <path id="路径_539" data-name="路径 539" d="M645.2,493.9,634.8,512a4.4,4.4,0,0,0,3.8,6.6h20.9a4.4,4.4,0,0,0,3.8-6.6l-10.5-18.1A4.334,4.334,0,0,0,645.2,493.9Z" fill="#40da97"/>
      </g>
      <path id="路径_540" data-name="路径 540" d="M217.9,317.6H135.2a3.9,3.9,0,0,1-3.9-3.9h0a3.9,3.9,0,0,1,3.9-3.9h82.7a3.9,3.9,0,0,1,3.9,3.9h0A3.9,3.9,0,0,1,217.9,317.6Z" fill="#40da97"/>
      <path id="路径_541" data-name="路径 541" d="M186.5,343H135.1a3.9,3.9,0,0,1-3.9-3.9h0a3.9,3.9,0,0,1,3.9-3.9h51.4a3.9,3.9,0,0,1,3.9,3.9h0A3.842,3.842,0,0,1,186.5,343Z" fill="#40da97"/>
      <path id="路径_542" data-name="路径 542" d="M201.4,369.5H135.2a3.9,3.9,0,0,1-3.9-3.9h0a3.9,3.9,0,0,1,3.9-3.9h66.2a3.9,3.9,0,0,1,3.9,3.9h0A3.9,3.9,0,0,1,201.4,369.5Z" fill="#40da97"/>
      <path id="路径_543" data-name="路径 543" d="M923.2,472.9h150.4a3.9,3.9,0,0,0,3.9-3.9h0a3.9,3.9,0,0,0-3.9-3.9H923.2a3.9,3.9,0,0,0-3.9,3.9h0A3.97,3.97,0,0,0,923.2,472.9Z" fill="#e6e9f4"/>
      <path id="路径_544" data-name="路径 544" d="M1007.4,498.3h66.1a3.9,3.9,0,0,0,3.9-3.9h0a3.9,3.9,0,0,0-3.9-3.9h-66.1a3.9,3.9,0,0,0-3.9,3.9h0A3.97,3.97,0,0,0,1007.4,498.3Z" fill="#e6e9f4"/>
      <g id="组_559" data-name="组 559">
        <g id="组_558" data-name="组 558">
          <path id="路径_545" data-name="路径 545" d="M842.5,434.8l128.6-61.4L927,487.5Z" fill="#ff6246"/>
          <path id="路径_546" data-name="路径 546" d="M967.4,377.4,926,484.5,873.9,452l-27.2-17,120.7-57.6m7.4-7.9-9.1,4.3L845,431.5l-6.6,3.1,6.2,3.9,27.2,17L923.9,488l4.1,2.6,1.7-4.5L971.1,379l3.7-9.5Z" fill="#fff"/>
        </g>
        <path id="路径_547" data-name="路径 547" d="M876.2,481l-4.9-30.6,21.3,13.3Z" fill="#dd3b2f"/>
        <path id="路径_548" data-name="路径 548" d="M871.3,450.4l96.1-73-74.8,86.3Z" fill="#dd3b2f"/>
      </g>
      <path id="路径_549" data-name="路径 549" d="M504.2,295.4l-51-24.3a73.07,73.07,0,0,0,3.8-16.8,218.235,218.235,0,0,0,.5-23.9l44,28.7s-.3,14.1,0,18.5C501.9,282.2,504.2,295.4,504.2,295.4Z" fill="#efbfa9"/>
      <path id="路径_550" data-name="路径 550" d="M561.6,517.4c0,26.7-48.5,37.3-108.4,37.3s-108.4-10.6-108.4-37.3,48.5-75.3,108.4-75.3S561.6,490.7,561.6,517.4Z" fill="#dd3b2f"/>
      <path id="路径_551" data-name="路径 551" d="M316.7,460.6h0a42.472,42.472,0,0,1-11.1-59.1l69.6-101.8a42.472,42.472,0,0,1,59.1-11.1h0a42.472,42.472,0,0,1,11.1,59.1L375.8,449.5A42.561,42.561,0,0,1,316.7,460.6Z" fill="#ff6246"/>
      <path id="路径_552" data-name="路径 552" d="M557.1,392.8l-46.4-12.4-16.8,95.1-7.9-6.8-119.4,2.8,36.4-.9c-24.4,20.6-7.5,29.3,1.5,42.1,9,12.7,59.7,55.6,78.2,50.3,12.4-3.6,38.3-20.3,53.9-30.8,6.4.8,2.5-7.6,6.5-8.7C523.5,421.6,557.1,392.8,557.1,392.8Z" fill="#ff6246"/>
      <path id="路径_553" data-name="路径 553" d="M555.6,587.8l-191.1-2.7,13.8-61.3h164Z"/>
      <path id="路径_554" data-name="路径 554" d="M589.4,474.1h0A37.981,37.981,0,0,1,539.9,453L493.5,337.7a37.981,37.981,0,0,1,21.1-49.5h0a37.981,37.981,0,0,1,49.5,21.1l46.4,115.3A38.052,38.052,0,0,1,589.4,474.1Z" fill="#ea4832"/>
      <path id="路径_555" data-name="路径 555" d="M589.4,474.1h0A37.981,37.981,0,0,1,539.9,453L493.5,337.7a37.981,37.981,0,0,1,21.1-49.5h0a37.981,37.981,0,0,1,49.5,21.1l46.4,115.3A38.052,38.052,0,0,1,589.4,474.1Z" fill="#dd3b2f"/>
      <path id="路径_556" data-name="路径 556" d="M570.6,499.6H482.4l1.2-12.1L578.4,444l40.8,34.9Z" fill="#949baf"/>
      <path id="路径_557" data-name="路径 557" d="M543,523l-165.6-1L372,550.2l116,21.1,6.3-44.8,11,39.3,42.8-15Z" fill="#fff"/>
      <path id="路径_558" data-name="路径 558" d="M545.5,536.5l-170.6-1.4V506.2l165.6,2Z" fill="#ff6246"/>
      <path id="路径_559" data-name="路径 559" d="M435.9,278.5s-3-6.2-10.4-2.5-15.5,39-35.6,57c-20.1,18.1-110.4,71.4-89.9,111.6s51.8,50.4,70.7,71.5,32.5,19.7,50,2.2,6.8-53.7,6.8-53.7l20.3-8.9L464,483.4l31.5,14.8,23.6-47.3,4.3-40s24.3-90.1,8.6-105.5-17.9-28-17.9-28Z" fill="#ff6246"/>
      <g id="组_562" data-name="组 562">
        <g id="组_561" data-name="组 561">
          <g id="组_560" data-name="组 560" clip-path="url(#clip-path)">
            <rect id="矩形_2670" data-name="矩形 2670" width="105.8" height="43.3" transform="translate(356 503.9)" fill="#ea4832"/>
          </g>
        </g>
      </g>
      <path id="路径_560" data-name="路径 560" d="M537,460.9l-20.6-58.3,19.1-51.4,5.6,56.066Z" fill="#f99898" style="isolation: isolate"/>
      <path id="路径_561" data-name="路径 561" d="M417.1,435.2l15.9,5.7,6.3,2.2,3.5,1.8,28.4-40.8-40.6-58.3L390,404.1l18.8,27.1Z" fill="#f99898" style="isolation: isolate"/>
      <path id="路径_562" data-name="路径 562" d="M494.2,445.3l-29.3-42,29.3-42.1,29.3,42.1Z" fill="#f99898" style="isolation: isolate"/>
      <path id="路径_563" data-name="路径 563" d="M447.2,454.3s.1-7.9-11.6-11.9-79.7-11.8-40.8-61.9c0,0-1.1,39.8,26.5,54.3S448.4,440.5,447.2,454.3Z" fill="#dd3b2f"/>
      <g id="组_565" data-name="组 565">
        <g id="组_564" data-name="组 564">
          <g id="组_563" data-name="组 563" clip-path="url(#clip-path-2)">
            <path id="路径_564" data-name="路径 564" d="M303.4,389.1s-21.9,46.1,24.9,77.2c32.6,21.7,36.5,36.5,48,42.3,21.9,10.9,15.2-22.5,29.4-31.8,14.1-9.3,22.9-8.4,22.9-8.4L416.1,518l11,8.6L396,546.8l-49.8-19.3-45.7-44.1-17.4-53.2Z" fill="#ea4832"/>
          </g>
        </g>
      </g>
      <path id="路径_565" data-name="路径 565" d="M511.2,269.1s30,31.7,28.9,46.2-10.4,19.8-18,7.2-4.9,22.8-11.3,27.4c-6.3,4.6-10.1,18.3-10.1,18.3s.2-49.5,8.4-60.6c5.4-7.3-14.8-34.3-14.8-34.3l3.7-14.6Z" fill="#fff"/>
      <g id="组_568" data-name="组 568">
        <g id="组_567" data-name="组 567">
          <g id="组_566" data-name="组 566" clip-path="url(#clip-path-3)">
            <path id="路径_566" data-name="路径 566" d="M518.5,320.1s20.6-14,20.4-2.4c-.1,11.6-5.4,11.3-5.4,11.3l-7.7,8.5s-7.9-6.4-7.9-6.8S518.5,320.1,518.5,320.1Z" fill="#e6e9f4"/>
          </g>
        </g>
      </g>
      <g id="组_571" data-name="组 571">
        <g id="组_570" data-name="组 570">
          <g id="组_569" data-name="组 569" clip-path="url(#clip-path-3)">
            <path id="路径_567" data-name="路径 567" d="M501.5,262.1s33.5,32.7,13.9,53.7c-4,4.3-5.3,22.9-7.3,26.8s-5.7,16.2-5.7,16.2l-2.5-34.6Z" fill="#e6e9f4"/>
          </g>
        </g>
      </g>
      <path id="路径_568" data-name="路径 568" d="M511.2,296.3c0,13.5-9.5,76.4-22.1,22.3-3.1-13.2-24.5-11-24.5-24.5a24.54,24.54,0,0,1,24.5-24.5c5.7,0,10.3,10.4,14.4,13.6C509.2,287.8,511.2,288.5,511.2,296.3Z" fill="#efbfa9"/>
      <path id="路径_569" data-name="路径 569" d="M504.2,260.9,469.4,244s-3.1,21.5,16.6,42.6,20,4,17.6.8C500.1,283,504.2,260.9,504.2,260.9Z" fill="#e8a489"/>
      <path id="路径_570" data-name="路径 570" d="M433.5,271.9s18.2-23.6,23.6-19.8c5.5,3.8,11.3,39.4,37.9,52,0,0,10.5,3.8,8.2,18.3s-.8,36.5-.8,36.5-4.5-15.2-13.2-26.1c-4.6,6.2-4.2,9.4-13.3,14.6C455.8,334.1,424.5,288.1,433.5,271.9Z" fill="#fff"/>
      <g id="组_574" data-name="组 574">
        <g id="组_573" data-name="组 573">
          <g id="组_572" data-name="组 572" clip-path="url(#clip-path-5)">
            <path id="路径_571" data-name="路径 571" d="M489.2,332.8s6.2-7.8,7.8-8.3c1.7-.5,6.4,11.7,5.3,34.2l-11.6-17.1Z" fill="#e6e9f4"/>
          </g>
        </g>
      </g>
      <g id="组_577" data-name="组 577">
        <g id="组_576" data-name="组 576">
          <g id="组_575" data-name="组 575" clip-path="url(#clip-path-6)">
            <path id="路径_572" data-name="路径 572" d="M565.2,493.7l-69.5,2,5.4,5,74.6,3.2Z" fill="#e6e9f4"/>
          </g>
        </g>
      </g>
      <ellipse id="椭圆_329" data-name="椭圆 329" cx="58.599" cy="43.299" rx="58.599" ry="43.299" transform="translate(339.071 497.893) rotate(-49.193)" fill="#ff6246"/>
      <path id="路径_573" data-name="路径 573" d="M523.6,500.3l-17.4-2a38.019,38.019,0,0,0-4.5-3.2c1.8-.1,3.7-.2,5.7-.5,17.9-2.7,13.3-17.6,13.3-17.6s-6.3.7-15.4,2.2c-9.1,1.4-18.6-8.5-27.3-11.6-4.9-1.7-13.4-.7-19.7.6L443,463.8l-13.6,46.6L451,535.6a18.882,18.882,0,0,0,7.9,5.5l5,1.9a20.034,20.034,0,0,0,6.9,1.2c5.5,0,15.5-.4,18.3-2.1,2.6-1.5,3.4-5.4,3.6-7.9.7-.3,1.4-.6,2-.9,5-2.7,5.2-8.2,5.1-10.6a17.189,17.189,0,0,0,4.4-.5c3.1-.8,3.9-4.9,4-8.2a16.812,16.812,0,0,0,4.9.2c6.7-1.3,11.9-14.5,11.9-14.5A7.712,7.712,0,0,1,523.6,500.3Z" fill="#efbfa9"/>
      <path id="路径_574" data-name="路径 574" d="M440.6,453.3s27.7,2.7,23.8,13.9c-12.9,2.1-20.2,7.9-26,23.1-3.4,9-2.1,20.8,2.2,29.3,0,0-2.3,14.3-24-1.3C394.8,502.7,411.2,451.7,440.6,453.3Z" fill="#fff"/>
      <path id="路径_575" data-name="路径 575" d="M562.8,375.3,707.3,328a3.919,3.919,0,0,1,5.1,4.2L698.6,438.1a13.523,13.523,0,0,1-8.2,10.8L573.6,498.8a8.906,8.906,0,0,1-12.4-7.8l-5.5-105.4A10.2,10.2,0,0,1,562.8,375.3Z" fill="#a6acbc"/>
      <path id="路径_576" data-name="路径 576" d="M555.2,377.8l158-51.7L697.6,445.9l-135.8,58Z" fill="none"/>
      <g id="组_580" data-name="组 580">
        <g id="组_579" data-name="组 579">
          <g id="组_578" data-name="组 578" clip-path="url(#clip-path-7)">
            <path id="路径_577" data-name="路径 577" d="M713.2,326.1S671.6,428.4,560.8,502.4l179.5,22.1,8.6-116.3Z" fill="#7e828e"/>
          </g>
        </g>
      </g>
      <g id="组_583" data-name="组 583">
        <g id="组_582" data-name="组 582">
          <g id="组_581" data-name="组 581" clip-path="url(#clip-path-7)">
            <path id="路径_578" data-name="路径 578" d="M717.1,327.3,564,377.8a8.074,8.074,0,0,0-5.5,7.9l5.8,116-28.7-14.8L515.9,363l104.4-47.4,85.3-5.5Z" fill="#e6e9f4"/>
          </g>
        </g>
      </g>
      <path id="路径_579" data-name="路径 579" d="M559.3,456.5l-42.2,20h30.7l12.2-6.8Z" fill="#c7cbd8"/>
      <ellipse id="椭圆_330" data-name="椭圆 330" cx="12.3" cy="10.5" rx="12.3" ry="10.5" transform="matrix(0.478, -0.878, 0.878, 0.478, 632.478, 422.65)" fill="#e6e9f4"/>
      <ellipse id="椭圆_331" data-name="椭圆 331" cx="4.3" cy="3.7" rx="4.3" ry="3.7" transform="matrix(0.478, -0.878, 0.878, 0.478, 625.438, 426.992)" fill="#e6e9f4"/>
      <ellipse id="椭圆_332" data-name="椭圆 332" cx="4.3" cy="3.7" rx="4.3" ry="3.7" transform="matrix(0.478, -0.878, 0.878, 0.478, 627.57, 410.858)" fill="#e6e9f4"/>
      <ellipse id="椭圆_333" data-name="椭圆 333" cx="4.3" cy="3.7" rx="4.3" ry="3.7" transform="matrix(0.478, -0.878, 0.878, 0.478, 639.28, 401.468)" fill="#e6e9f4"/>
      <ellipse id="椭圆_334" data-name="椭圆 334" cx="4.3" cy="3.7" rx="4.3" ry="3.7" transform="matrix(0.478, -0.878, 0.878, 0.478, 654.468, 405.104)" fill="#e6e9f4"/>
      <g id="组_587" data-name="组 587">
        <g id="组_586" data-name="组 586">
          <g id="组_585" data-name="组 585" clip-path="url(#clip-path-9)">
            <g id="组_584" data-name="组 584">
              <path id="路径_580" data-name="路径 580" d="M508.2,514s-23.6-5.3-30.1-6.8l29.3,11.5C507.5,518.7,511.8,518.2,508.2,514Z" fill="#e89076"/>
              <path id="路径_581" data-name="路径 581" d="M499.8,522.6,467,515.5s26.7,14.1,31.9,13C504.1,527.3,499.8,522.6,499.8,522.6Z" fill="#e89076"/>
              <path id="路径_582" data-name="路径 582" d="M492.5,534.3,463,529.8s23.5,11.5,28.7,10.4S492.5,534.3,492.5,534.3Z" fill="#e89076"/>
            </g>
          </g>
        </g>
      </g>
      <g id="组_590" data-name="组 590">
        <g id="组_589" data-name="组 589">
          <g id="组_588" data-name="组 588" clip-path="url(#clip-path-9)">
            <path id="路径_583" data-name="路径 583" d="M501.7,495.1s-16.8-2.1-24.5-5.5c0,0,21.8,13,27,12.9s18.5,1.4,20.8-2.7c2.4-4.1-14.1-2.7-14.1-2.7Z" fill="#e89076"/>
          </g>
        </g>
      </g>
      <line id="直线_217" data-name="直线 217" x1="39.1" y1="10.3" transform="translate(509.5 204.6)" fill="none" stroke="#e6e9f4" stroke-miterlimit="10" stroke-width="2"/>
      <path id="路径_584" data-name="路径 584" d="M542.2,206.6c-.7,3.9-2.6,7.1-3.7,10.6-.9,2.9,0,5.8-.9,8.5-8.8,26.6-24.3,44.1-41.2,36.7a115.03,115.03,0,0,1-35.7-23.8c-11-10.8-20.5-24.4-20.5-39.3,0-31.2,13.5-68.4,58.3-56.8C524.7,149.3,547.9,176,542.2,206.6Z" fill="#efbfa9"/>
      <path id="路径_585" data-name="路径 585" d="M547.9,183.9s7,.5,9.2-4.6c0,0-3.5,13.6-7.7,15.4C545.3,196.5,547.9,183.9,547.9,183.9Z" fill="#600f0f"/>
      <path id="路径_586" data-name="路径 586" d="M511.2,243.7s4.1,1.9,11.5-2.3c0,0-3.9,9.4-7.7,9.8C511.3,251.6,511.2,243.7,511.2,243.7Z" fill="#e85b3f"/>
      <g id="组_593" data-name="组 593">
        <g id="组_592" data-name="组 592">
          <g id="组_591" data-name="组 591" clip-path="url(#clip-path-11)">
            <ellipse id="椭圆_335" data-name="椭圆 335" cx="6.3" cy="5.7" rx="6.3" ry="5.7" transform="translate(505.6 245.6)" fill="#c63109"/>
          </g>
        </g>
      </g>
      <path id="路径_587" data-name="路径 587" d="M456.1,229s-6.1,14.3-11.6,2.8c0,0,1.8,17.7,13,14.7C464,233.4,456.1,229,456.1,229Z" fill="#450000"/>
      <ellipse id="椭圆_336" data-name="椭圆 336" cx="2.1" cy="3.6" rx="2.1" ry="3.6" transform="translate(515.276 195.435) rotate(-39.371)" fill="#450000"/>
      <ellipse id="椭圆_337" data-name="椭圆 337" cx="3.6" cy="2.1" rx="3.6" ry="2.1" transform="matrix(0.634, -0.773, 0.773, 0.634, 530.629, 199.532)" fill="#450000"/>
      <path id="路径_588" data-name="路径 588" d="M531.2,208.6c3.3-4.4,8-7.1,11.9-5.7,5.3,1.9,7.3,9.9,4.5,17.8-2.2,6.1-7.6,10.4-12.2,10.7" fill="none" stroke="#e6e9f4" stroke-linecap="round" stroke-linejoin="round" stroke-width="2"/>
      <ellipse id="椭圆_338" data-name="椭圆 338" cx="16.9" cy="15.5" rx="16.9" ry="15.5" transform="translate(489.174 230.161) rotate(-70.306)" fill="none" stroke="#e6e9f4" stroke-miterlimit="10" stroke-width="2"/>
      <path id="路径_589" data-name="路径 589" d="M459.4,147.9,463,144a24.867,24.867,0,0,1,14.6-7.7c13.5-1.9,47.9.9,64.7,35l-.8,13.4-13.3-13.3-12.4,5.3-21.4,31L475,208.9l-5.5,18.5s-.8-17.7-5.5-21.5c-4.4-3.6-12.2-.7-12.2-.7l-3.4,11.9s-16.8-15.2-11.2-37.2C442.3,159.5,450.4,147.9,459.4,147.9Z" fill="#450000"/>
      <path id="路径_590" data-name="路径 590" d="M462.4,128.1c4.8,8.3,5.4,22.6-1.7,26.8-7.2,4.2-19.3-3.4-24.2-11.7-4.8-8.3-1.4-15.3,5.7-19.5C449.4,119.5,457.6,119.8,462.4,128.1Z" fill="#450000"/>
      <line id="直线_218" data-name="直线 218" x1="36.2" y1="12.9" transform="translate(458 203.8)" fill="none" stroke="#e6e9f4" stroke-miterlimit="10" stroke-width="2"/>
      <path id="路径_591" data-name="路径 591" d="M465.7,208.5c5,8.7,1.3,19.9-5.3,23.7s-19.7-4-24.7-12.7-1-16.8,6-19.8C448.5,196.9,460.7,199.8,465.7,208.5Z" fill="#efbfa9"/>
      <path id="路径_592" data-name="路径 592" d="M528.3,170.1l12.3-3.7a4.688,4.688,0,0,1,5.8,3.5,53.266,53.266,0,0,1,1.7,12.6c-.2,13.3,3.7,10.2,3.7,10.2s-4.1,7.1-11.3-1.9-9.6-13.7-9.6-13.7Z" fill="#6b1d1d"/>
      <path id="路径_593" data-name="路径 593" d="M532.1,179.3s-4.4-20.4-20.9-17.9c-8.3,1.2-25.6,42.6-35.6,41.1s-11.9-8.5-11.9-8.5a22.4,22.4,0,0,0,13.8,18.2c12.7,5.3,29.9-9,45.1-35.4a2.531,2.531,0,0,1,3.6-.9Z" fill="#6b1d1d"/>
      <path id="路径_594" data-name="路径 594" d="M445.6,209.1s11.2-4.7,14.2,8.7S447,223,457,216.7C457,216.7,454.9,206.8,445.6,209.1Z" fill="#e8a489"/>
      <path id="路径_595" data-name="路径 595" d="M498.8,263.3s3.8-3.3,6.6-3.2,6.1,2.8,11.1-.2c0,0-1.8,6.8,5.1,7.7,0,0-.8,1-5.4.7,0,0,.8,5.1,5.8,4.3C522.1,272.6,512.3,279.3,498.8,263.3Z" fill="#450000"/>
      <g id="组_598" data-name="组 598">
        <g id="组_597" data-name="组 597">
          <path id="路径_596" data-name="路径 596" d="M416.7,628.1h-286A33.075,33.075,0,0,1,97.6,595V479.3a33.075,33.075,0,0,1,33.1-33.1h286a33.075,33.075,0,0,1,33.1,33.1V595A33.075,33.075,0,0,1,416.7,628.1Z" fill="#e6e9f4"/>
          <path id="路径_597" data-name="路径 597" d="M432.5,613.7h-286a33.075,33.075,0,0,1-33.1-33.1V465a33.075,33.075,0,0,1,33.1-33.1h286A33.075,33.075,0,0,1,465.6,465V580.7A33.054,33.054,0,0,1,432.5,613.7Z" fill="#fff" stroke="#e6e9f4" stroke-miterlimit="10" stroke-width="1"/>
          <g id="组_596" data-name="组 596">
            <path id="路径_598" data-name="路径 598" d="M364.6,510.6H216.5a5.8,5.8,0,0,1-5.8-5.8v-9.3a5.8,5.8,0,0,1,5.8-5.8H364.6a5.8,5.8,0,0,1,5.8,5.8v9.3A5.8,5.8,0,0,1,364.6,510.6Z" fill="#e6e9f4" stroke="#fff" stroke-miterlimit="10" stroke-width="1"/>
            <path id="路径_599" data-name="路径 599" d="M431.4,547.2H395.1a5.8,5.8,0,0,1-5.8-5.8V495.5a5.8,5.8,0,0,1,5.8-5.8h36.3a5.8,5.8,0,0,1,5.8,5.8v45.9A5.68,5.68,0,0,1,431.4,547.2Z" fill="#e6e9f4" stroke="#fff" stroke-miterlimit="10" stroke-width="1"/>
            <path id="路径_600" data-name="路径 600" d="M431.4,580.9H395.1a5.8,5.8,0,0,1-5.8-5.8V559.2a5.8,5.8,0,0,1,5.8-5.8h36.3a5.8,5.8,0,0,1,5.8,5.8v15.9A5.68,5.68,0,0,1,431.4,580.9Z" fill="#e6e9f4" stroke="#fff" stroke-miterlimit="10" stroke-width="1"/>
            <path id="路径_601" data-name="路径 601" d="M368.1,530.1H227.3a2.326,2.326,0,0,1-2.3-2.3h0a2.326,2.326,0,0,1,2.3-2.3H368a2.326,2.326,0,0,1,2.3,2.3h0A2.24,2.24,0,0,1,368.1,530.1Z" fill="#e6e9f4" stroke="#fff" stroke-miterlimit="10" stroke-width="1"/>
            <path id="路径_602" data-name="路径 602" d="M368.1,547.3h-196a2.326,2.326,0,0,1-2.3-2.3h0a2.326,2.326,0,0,1,2.3-2.3H368a2.326,2.326,0,0,1,2.3,2.3h0A2.24,2.24,0,0,1,368.1,547.3Z" fill="#e6e9f4" stroke="#fff" stroke-miterlimit="10" stroke-width="1"/>
            <path id="路径_603" data-name="路径 603" d="M368.1,564.5h-196a2.326,2.326,0,0,1-2.3-2.3h0a2.326,2.326,0,0,1,2.3-2.3H368a2.326,2.326,0,0,1,2.3,2.3h0A2.24,2.24,0,0,1,368.1,564.5Z" fill="#e6e9f4" stroke="#fff" stroke-miterlimit="10" stroke-width="1"/>
            <path id="路径_604" data-name="路径 604" d="M368.1,581.7h-196a2.326,2.326,0,0,1-2.3-2.3h0a2.326,2.326,0,0,1,2.3-2.3H368a2.326,2.326,0,0,1,2.3,2.3h0A2.241,2.241,0,0,1,368.1,581.7Z" fill="#e6e9f4" stroke="#fff" stroke-miterlimit="10" stroke-width="1"/>
            <g id="组_594" data-name="组 594">
              <path id="路径_605" data-name="路径 605" d="M135.4,496.3v51.8l46.2,25.8,46.2-25.8V496.3l-46.2-25.9Z" fill="#e6e9f4" stroke="#fff" stroke-linecap="round" stroke-linejoin="round" stroke-width="8"/>
              <path id="路径_606" data-name="路径 606" d="M135.4,496.3l46.2,23.8,46.2-23.8" fill="#e6e9f4" stroke="#fff" stroke-linecap="round" stroke-linejoin="round" stroke-width="8"/>
              <line id="直线_219" data-name="直线 219" y2="52.2" transform="translate(181.6 520.1)" fill="none" stroke="#fff" stroke-linecap="round" stroke-linejoin="round" stroke-width="8"/>
            </g>
            <g id="组_595" data-name="组 595">
              <path id="路径_607" data-name="路径 607" d="M143.4,553v29.6l26.4,14.7,26.3-14.7V553l-26.3-14.8Z" fill="#e6e9f4" stroke="#fff" stroke-linecap="round" stroke-linejoin="round" stroke-width="8"/>
              <path id="路径_608" data-name="路径 608" d="M143.4,553l26.4,13.6L196.1,553" fill="#e6e9f4" stroke="#fff" stroke-linecap="round" stroke-linejoin="round" stroke-width="8"/>
              <line id="直线_220" data-name="直线 220" y2="29.8" transform="translate(169.8 566.6)" fill="none" stroke="#fff" stroke-linecap="round" stroke-linejoin="round" stroke-width="8"/>
            </g>
          </g>
        </g>
        <line id="直线_221" data-name="直线 221" x2="339.8" transform="translate(121.4 477.9)" fill="none" stroke="#e6e9f4" stroke-miterlimit="10" stroke-width="1"/>
        <circle id="椭圆_339" data-name="椭圆 339" cx="4.5" cy="4.5" r="4.5" transform="translate(142.4 457.4)" fill="#ff6246"/>
        <circle id="椭圆_340" data-name="椭圆 340" cx="4.5" cy="4.5" r="4.5" transform="translate(157.4 457.4)" fill="#7384f3"/>
        <circle id="椭圆_341" data-name="椭圆 341" cx="4.5" cy="4.5" r="4.5" transform="translate(172.4 457.4)" fill="#40da97"/>
        <path id="路径_609" data-name="路径 609" d="M431.1,465.7H395.3a3.329,3.329,0,0,1-3.3-3.3h0a3.329,3.329,0,0,1,3.3-3.3h35.8a3.329,3.329,0,0,1,3.3,3.3h0A3.4,3.4,0,0,1,431.1,465.7Z" fill="#e6e9f4"/>
        <path id="路径_610" data-name="路径 610" d="M383.2,465.7h-5.3a3.329,3.329,0,0,1-3.3-3.3h0a3.329,3.329,0,0,1,3.3-3.3h5.3a3.329,3.329,0,0,1,3.3,3.3h0A3.329,3.329,0,0,1,383.2,465.7Z" fill="#e6e9f4"/>
      </g>
      <ellipse id="椭圆_342" data-name="椭圆 342" cx="6" cy="3.1" rx="6" ry="3.1" transform="translate(510.366 220.689) rotate(-80.793)" fill="#020101"/>
      <path id="路径_611" data-name="路径 611" d="M535.8,209.3c-1.6-.3-3.2,1.8-3.9,4.7l.9,3.5,1.1,3.6h0c1.7.3,3.5-2.1,4-5.4C538.4,212.5,537.5,209.6,535.8,209.3Z" fill="#020101"/>
      <g id="组_600" data-name="组 600">
        <g id="组_599" data-name="组 599" clip-path="url(#clip-path-12)">
          <path id="路径_612" data-name="路径 612" d="M537,460.9l-20.6-58.3,22.5-84.9,19.8,84.9Z" fill="#f47a7a" style="isolation: isolate"/>
        </g>
      </g>
      <g id="组_602" data-name="组 602">
        <g id="组_601" data-name="组 601" clip-path="url(#clip-path-13)">
          <ellipse id="椭圆_343" data-name="椭圆 343" cx="12.3" cy="10.5" rx="12.3" ry="10.5" transform="matrix(0.478, -0.878, 0.878, 0.478, 632.478, 422.65)" fill="#ced2dd"/>
        </g>
      </g>
      <path id="路径_613" data-name="路径 613" d="M529.769,206.077A98.354,98.354,0,0,0,536.5,225.9c1.7,3.5,0,6.3-3.2,7.4s-5.1.7-9.8,1.7c0,0,7-1.7,10.6-4.3S529.869,218.577,529.769,206.077Z" fill="#e89076"/>
      <path id="路径_614" data-name="路径 614" d="M524.6,214.1s4.9-4.6,7-2" fill="none" stroke="#e6e9f4" stroke-linecap="round" stroke-linejoin="round" stroke-width="2"/>
    </g>
    <g id="组_456" data-name="组 456" transform="translate(-357.886 -143.439)">
      <path id="路径_312" data-name="路径 312" d="M1104.016,509.934a2.811,2.811,0,0,0-1.34-.75,50.632,50.632,0,0,0,5.505-12.121c.872-2.915-.692-4.974-3.489-4.593l-21.231,2.89a8.981,8.981,0,0,0-6.647,5.974c-.872,2.917.692,4.974,3.489,4.593l15.662-2.133c-4.4,9.123-12.355,15.807-20.681,16.94l-9.456,1.286a8.98,8.98,0,0,0-6.647,5.974c-.872,2.915.692,4.974,3.489,4.593l9.456-1.289c8.109-1.1,16.244-5.753,22.9-12.443l6.884,7.163a3.31,3.31,0,0,0,2.922.831,8.075,8.075,0,0,0,4.392-2.361c2.487-2.46,3.246-5.762,1.692-7.377Z" transform="translate(142.78 35.589)" fill="#ff6246"/>
      <path id="路径_313" data-name="路径 313" d="M998.465,558.786l-16.651,2.266,11.8-39.468,13.82-1.881a8.982,8.982,0,0,0,6.648-5.972c.872-2.917-.692-4.976-3.489-4.6l-13.82,1.881,6.469-21.645c.872-2.917-.691-4.976-3.489-4.593a8.978,8.978,0,0,0-6.647,5.972l-21.425,71.681L959.3,564.116a8.977,8.977,0,0,0-6.647,5.972c-.872,2.917.692,4.976,3.489,4.593l39.162-5.33a8.977,8.977,0,0,0,6.647-5.972C1002.826,560.462,1001.262,558.4,998.465,558.786Z" transform="translate(9.345 25.955)" fill="#ff6246"/>
      <path id="路径_314" data-name="路径 314" d="M1034.491,482.312c-9,1.225-18.6,9.853-21.4,19.233l-12.2,40.8c-2.8,9.38,2.237,16.014,11.234,14.789s18.6-9.851,21.4-19.228l12.2-40.806C1048.529,487.723,1043.487,481.089,1034.491,482.312Zm-11.1,56.976c-1.063,3.552-4.7,6.819-8.107,7.283s-5.316-2.048-4.255-5.6l12.2-40.806c1.061-3.552,4.7-6.821,8.1-7.285s5.317,2.05,4.255,5.6Z" transform="translate(69.1 22.74)" fill="#ff6246"/>
      <path id="路径_315" data-name="路径 315" d="M1075.135,510.064l5.591-18.71c3.224-10.783-2.57-18.408-12.91-17s-21.38,11.326-24.6,22.107l-5.593,18.713c-3.221,10.781,2.57,18.408,12.914,17S1071.912,520.847,1075.135,510.064ZM1065,511.445c-1.482,4.956-6.555,9.513-11.306,10.159s-7.416-2.859-5.936-7.814l5.593-18.71c1.482-4.956,6.553-9.513,11.308-10.162s7.413,2.859,5.931,7.814Z" transform="translate(114.96 12.741)" fill="#ff6246"/>
      <path id="路径_316" data-name="路径 316" d="M1043.649,491.129A8.985,8.985,0,0,0,1037,497.1l-6.42,21.477a33.825,33.825,0,0,1-9.29,14.471c-2.543,2.4-3.42,5.728-1.96,7.429a3.249,3.249,0,0,0,3.023.939,7.973,7.973,0,0,0,4.226-2.2c6.787-6.409,11.811-14.23,14.137-22.019l6.42-21.476C1048.01,492.807,1046.446,490.748,1043.649,491.129Z" transform="translate(92.283 33.91)" fill="#ff6246"/>
      <path id="路径_317" data-name="路径 317" d="M1048.97,502.312a8.986,8.986,0,0,0-6.648,5.974l-.16.536a22.491,22.491,0,0,1-8.332,11.22c-2.787,2.007-4.3,5.379-3.384,7.531a3.041,3.041,0,0,0,3.469,1.651,7.348,7.348,0,0,0,3.235-1.383c7.224-5.2,12.885-12.829,15.149-20.4l.16-.536C1053.331,503.99,1051.767,501.932,1048.97,502.312Z" transform="translate(106.756 47.919)" fill="#ff6246"/>
      <path id="路径_318" data-name="路径 318" d="M1055.847,516.219c-2.53-1.976-3.3-5.643-2.05-9.806l.16-.538c.872-2.915-.692-4.974-3.49-4.593a8.981,8.981,0,0,0-6.647,5.974l-.16.536c-2.262,7.569-.87,14.234,3.723,17.829a3.469,3.469,0,0,0,2.647.583,8.3,8.3,0,0,0,4.791-2.775C1057.16,520.833,1057.615,517.6,1055.847,516.219Z" transform="translate(122.308 46.628)" fill="#ff6246"/>
      <path id="路径_319" data-name="路径 319" d="M1136.067,468.136a8.977,8.977,0,0,0-6.648,5.974l-.536,1.791-58.525,7.965a8.983,8.983,0,0,0-6.65,5.974c-.872,2.917.692,4.974,3.49,4.593l63.6-8.657a8.978,8.978,0,0,0,6.648-5.972l2.115-7.075C1140.428,469.814,1138.865,467.756,1136.067,468.136Z" transform="translate(148.452 5.109)" fill="#ff6246"/>
      <path id="路径_320" data-name="路径 320" d="M1131.839,478.346l-63.6,8.657a8.98,8.98,0,0,0-6.647,5.974c-.872,2.915.691,4.974,3.489,4.593l15.658-2.131-2.687,8.983c-.872,2.917.692,4.974,3.489,4.593a8.974,8.974,0,0,0,6.647-5.972l2.688-8.986,10.567-1.437-2.685,8.983c-.872,2.917.691,4.974,3.489,4.593a8.977,8.977,0,0,0,6.647-5.972l2.685-8.986,17.1-2.327a8.977,8.977,0,0,0,6.648-5.972C1136.2,480.024,1134.636,477.965,1131.839,478.346Z" transform="translate(145.805 17.898)" fill="#ff6246"/>
      <path id="路径_321" data-name="路径 321" d="M1074.875,500.759l2.395-8.008c.872-2.917-.692-4.974-3.489-4.593a8.981,8.981,0,0,0-6.647,5.972l-1.841,6.156-5.352,5.546c-2.428,2.516-3.068,5.794-1.426,7.319a3.371,3.371,0,0,0,2.818.725,8.163,8.163,0,0,0,4.555-2.523l6.893-7.143A8.711,8.711,0,0,0,1074.875,500.759Z" transform="translate(141.108 30.189)" fill="#ff6246"/>
      <path id="路径_322" data-name="路径 322" d="M1095.332,495.677l1.838-6.156c.872-2.915-.69-4.974-3.489-4.593a8.98,8.98,0,0,0-6.648,5.974l-2.392,8.008a4.222,4.222,0,0,0,.122,3.149l3.027,5.794a3.086,3.086,0,0,0,3.37,1.444,7.529,7.529,0,0,0,3.507-1.588c2.732-2.12,4.079-5.492,3.014-7.535Z" transform="translate(174.673 26.142)" fill="#ff6246"/>
      <path id="路径_323" data-name="路径 323" d="M1124.75,485.313a8.98,8.98,0,0,0,6.647-5.974c.872-2.917-.692-4.974-3.489-4.593l-13,1.768a8.98,8.98,0,0,0-6.648,5.974c-.872,2.917.692,4.974,3.49,4.593l1.43-.194-4.309,14.419-1.431.194a8.981,8.981,0,0,0-6.647,5.974c-.872,2.917.692,4.974,3.49,4.593l1.43-.194-4.863,16.268-4.316,2.482c-2.891,1.662-4.837,4.978-4.346,7.407.347,1.712,1.811,2.525,3.658,2.273a6.845,6.845,0,0,0,2.464-.885l14.586-8.386c2.89-1.662,4.837-4.978,4.346-7.407-.412-2.025-2.4-2.773-4.719-2l3.327-11.128,1.43-.194a8.98,8.98,0,0,0,6.648-5.974c.872-2.917-.692-4.974-3.489-4.593l-1.43.194,4.309-14.419Z" transform="translate(184.337 13.389)" fill="#ff6246"/>
      <path id="路径_324" data-name="路径 324" d="M1116.951,529.684l12.18-40.752c2.063-6.9,9.132-13.254,15.757-14.158s10.333,3.985,8.27,10.889l-12.18,40.75c-.872,2.917.692,4.974,3.49,4.593a8.978,8.978,0,0,0,6.648-5.972l12.18-40.752c3.8-12.732-3.034-21.735-15.248-20.073s-25.247,13.372-29.052,26.1l-12.18,40.75c-.872,2.917.692,4.976,3.489,4.593A8.978,8.978,0,0,0,1116.951,529.684Z" transform="translate(202.447)" fill="#ff6246"/>
      <path id="路径_325" data-name="路径 325" d="M1042.891,480.791c-1.361-1.793-4.568-1.358-7.166.973l-4.548,4.084a8.95,8.95,0,0,0-2.6,3.94,3.921,3.921,0,0,0,.369,3.532l2.386,3.142a3.206,3.206,0,0,0,3.122,1.061,7.907,7.907,0,0,0,4.048-2.036l4.546-4.084c2.593-2.334,3.593-5.679,2.23-7.472Z" transform="translate(104.446 19.634)" fill="#ff6246"/>
      <path id="路径_326" data-name="路径 326" d="M969.974,501.157a8.977,8.977,0,0,0-6.647,5.972l-6.418,21.479a33.832,33.832,0,0,1-9.292,14.469c-2.541,2.4-3.417,5.726-1.958,7.429a3.241,3.241,0,0,0,3.021.939,7.94,7.94,0,0,0,4.226-2.2c6.787-6.4,11.808-14.225,14.14-22.019l6.418-21.476C974.335,502.833,972.772,500.777,969.974,501.157Z" transform="translate(0 46.472)" fill="#ff6246"/>
      <path id="路径_327" data-name="路径 327" d="M957.656,506.492a3.2,3.2,0,0,0,3.122,1.059,7.9,7.9,0,0,0,4.046-2.034l4.548-4.086a8.937,8.937,0,0,0,2.6-3.938,3.93,3.93,0,0,0-.37-3.537l-2.386-3.14c-1.367-1.791-4.575-1.352-7.168.978l-4.546,4.084c-2.595,2.331-3.6,5.677-2.234,7.472Z" transform="translate(12.162 32.194)" fill="#ff6246"/>
      <path id="路径_328" data-name="路径 328" d="M1147.319,527.8c-8.558,1.165-13.351-5.147-10.684-14.07l10.909-36.5c.872-2.917-.689-4.974-3.489-4.593a8.978,8.978,0,0,0-6.648,5.972l-10.909,36.5a30.481,30.481,0,0,0-.8,3.458c-.157.126-.318.239-.471.378l-17.4,15.953c-2.575,2.361-3.523,5.7-2.122,7.456a3.222,3.222,0,0,0,3.082,1.009,7.918,7.918,0,0,0,4.12-2.1L1126.28,529c2.363,6.765,8.841,10.594,17.881,9.364a8.976,8.976,0,0,0,6.647-5.974C1151.68,529.478,1150.119,527.421,1147.319,527.8Z" transform="translate(200.548 10.747)" fill="#ff6246"/>
      <path id="路径_329" data-name="路径 329" d="M1012.491,535.776c1.248-2.476,2.376-4.965,3.336-7.456l7.145-.973a8.98,8.98,0,0,0,6.647-5.974c.872-2.917-.692-4.974-3.489-4.593l-6.891.937.018-.05,5.994-20.048c.018-.063.02-.119.036-.18l6.9-.939a8.98,8.98,0,0,0,6.647-5.974c.872-2.917-.692-4.974-3.489-4.593l-21.1,2.872.658-2.2c.872-2.917-.689-4.976-3.49-4.6a8.981,8.981,0,0,0-6.647,5.974l-2.237,7.488c-.872,2.917.692,4.974,3.489,4.593l9.157-1.246c-.02.061-.052.119-.07.182l-5.994,20.048-.009.05-9.146,1.246a8.981,8.981,0,0,0-6.647,5.972c-.872,2.917.692,4.976,3.489,4.6l8.81-1.2a78.961,78.961,0,0,1-16.316,24.7l-7.263,7.535c-2.428,2.518-3.063,5.8-1.419,7.317a3.375,3.375,0,0,0,2.816.723,8.176,8.176,0,0,0,4.557-2.527l7.262-7.535a103.9,103.9,0,0,0,9.107-10.9l4.98,15.063a3,3,0,0,0,3.557,1.888,7.158,7.158,0,0,0,2.933-1.174c2.834-1.874,4.523-5.235,3.773-7.5Z" transform="translate(43.533 22.483)" fill="#ff6246"/>
    </g>
  </g>
</svg>
