<svg xmlns="http://www.w3.org/2000/svg" width="18" height="18" viewBox="0 0 18 18">
  <g id="组_2129" data-name="组 2129" transform="translate(-2221 -5581)">
    <rect id="矩形_3517" data-name="矩形 3517" width="18" height="18" transform="translate(2221 5581)" fill="none" opacity="0.998"/>
    <path id="消_息11" data-name="消 息11" d="M15.171,13.85h-.7V8.182a6.44,6.44,0,0,0-5.6-6.39v-.8a.8.8,0,1,0-1.605,0v.781a6.44,6.44,0,0,0-5.623,6.41V13.85H.989a.8.8,0,0,0,0,1.593H5.1a2.851,2.851,0,0,0,2.954,2.74A2.861,2.861,0,0,0,11,15.443h4.166a.8.8,0,0,0,0-1.593ZM8.06,16.59a1.272,1.272,0,0,1-1.379-1.138H9.429A1.262,1.262,0,0,1,8.06,16.59ZM3.225,13.85V8.182a4.835,4.835,0,0,1,9.661,0V13.85Z" transform="translate(2221.92 5580.815)" fill="#ff8141"/>
  </g>
</svg>
