<svg xmlns="http://www.w3.org/2000/svg" xmlns:xlink="http://www.w3.org/1999/xlink" width="41" height="41" viewBox="0 0 41 41">
  <defs>
    <linearGradient id="linear-gradient" x1="0.5" y1="0.268" x2="0.5" y2="2.145" gradientUnits="objectBoundingBox">
      <stop offset="0" stop-color="#ff5a27"/>
      <stop offset="0.001" stop-color="#ff5a27"/>
      <stop offset="0.073" stop-color="#ff6741"/>
      <stop offset="0.154" stop-color="#ff7257"/>
      <stop offset="0.25" stop-color="#ff7b68"/>
      <stop offset="0.369" stop-color="#ff8174"/>
      <stop offset="0.536" stop-color="#ff857b"/>
      <stop offset="1" stop-color="#ff867d"/>
    </linearGradient>
    <linearGradient id="linear-gradient-2" x1="1.055" y1="2.689" x2="0.313" y2="-0.062" gradientUnits="objectBoundingBox">
      <stop offset="0.345" stop-color="#f0c5b8"/>
      <stop offset="0.637" stop-color="#f0e1da"/>
      <stop offset="0.828" stop-color="#f1f1ed"/>
    </linearGradient>
    <linearGradient id="linear-gradient-3" y1="0.5" x2="1" y2="0.5" gradientUnits="objectBoundingBox">
      <stop offset="0.022" stop-color="#3b546a"/>
      <stop offset="1" stop-color="#3b546a"/>
    </linearGradient>
  </defs>
  <g id="组_1" data-name="组 1" transform="translate(7657.5 -340.5)">
    <path id="交叉_8" data-name="交叉 8" d="M10,40A10,10,0,0,1,0,30V10A10,10,0,0,1,9.9,0H30.1A10,10,0,0,1,40,9.926V30.073A10,10,0,0,1,30,40Z" transform="translate(-7657 341)" stroke="rgba(0,0,0,0)" stroke-miterlimit="10" stroke-width="1" fill="url(#linear-gradient)"/>
    <path id="路径_675" data-name="路径 675" d="M162.315,316.04a.857.857,0,0,1-.144-.519c.1-2.032.1-5.542-.955-8.021a1.209,1.209,0,0,0-1.411-.668,18.737,18.737,0,0,0-5.93,2.871.85.85,0,0,1-.706.115,16.558,16.558,0,0,0-4.514-.693,16.236,16.236,0,0,0-4.514.693.85.85,0,0,1-.707-.114,18.735,18.735,0,0,0-5.929-2.871,1.21,1.21,0,0,0-1.411.668c-1.054,2.479-1.056,5.99-.955,8.021a.857.857,0,0,1-.144.519,10.845,10.845,0,0,0-.848,1.519.859.859,0,0,0-.078.357v1.307a.851.851,0,0,0,.851.851H162.39a.851.851,0,0,0,.851-.851v-1.307a.859.859,0,0,0-.078-.357A10.848,10.848,0,0,0,162.315,316.04Z" transform="translate(-7785.815 46.176)" fill="url(#linear-gradient-2)"/>
    <path id="交叉_12" data-name="交叉 12" d="M9.147,15.617A10,10,0,0,1,0,9.664V1.86A1.861,1.861,0,0,1,1.86,0,143.6,143.6,0,0,0,18.839.851V15.617Z" transform="translate(-7656.147 365.383)" fill="#b4def1" stroke="rgba(0,0,0,0)" stroke-miterlimit="10" stroke-width="1"/>
    <g id="组_1106" data-name="组 1106" transform="translate(-7645.35 359.122)">
      <circle id="椭圆_1" data-name="椭圆 1" cx="2.248" cy="2.248" r="2.248" transform="translate(11.885)" fill="#3b546a"/>
      <circle id="椭圆_2" data-name="椭圆 2" cx="0.601" cy="0.601" r="0.601" transform="translate(12.821 1.094)" fill="#fefeff"/>
      <circle id="椭圆_3" data-name="椭圆 3" cx="2.248" cy="2.248" r="2.248" fill="#3b546a"/>
      <circle id="椭圆_4" data-name="椭圆 4" cx="0.601" cy="0.601" r="0.601" transform="translate(0.636 1.094)" fill="#fefeff"/>
      <path id="路径_3" data-name="路径 3" d="M451.84,581.734a1.543,1.543,0,0,1-.986-.345c-.38-.312-.593-.635-.914-.481a.562.562,0,0,0-.311.445c-.031.285.086.751.928,1.2a2.653,2.653,0,0,0,2.914-.228,2.476,2.476,0,0,0,.59-.737.587.587,0,0,0-.159-.774c-.359-.275-.538-.141-.717.084a.534.534,0,0,0-.043.063A1.511,1.511,0,0,1,451.84,581.734Z" transform="translate(-443.694 -576.118)" fill="#3b546a"/>
    </g>
    <path id="交叉_11" data-name="交叉 11" d="M0,15.617V.851C5.848.815,11.593.477,17.274,0a1.861,1.861,0,0,1,1.861,1.861v8.46a10,10,0,0,1-8.785,5.3Z" transform="translate(-7637.308 365.383)" fill="#b4def1" stroke="rgba(0,0,0,0)" stroke-miterlimit="10" stroke-width="1"/>
    <g id="组_1107" data-name="组 1107" transform="translate(-7653.245 366.971)">
      <rect id="矩形_2" data-name="矩形 2" width="3.049" height="0.362" fill="#9ac2cc"/>
      <rect id="矩形_3" data-name="矩形 3" width="2.147" height="0.362" transform="translate(0 0.803)" fill="#9ac2cc"/>
      <rect id="矩形_4" data-name="矩形 4" width="2.812" height="0.362" transform="translate(0 1.554)" fill="#9ac2cc"/>
      <rect id="矩形_5" data-name="矩形 5" width="2.441" height="0.362" transform="translate(0 2.306)" fill="#9ac2cc"/>
    </g>
    <path id="交叉_14" data-name="交叉 14" d="M0,1.526V.209a2.691,2.691,0,0,1,.284-.1S5.162-1,5.162,3.815c0,3.027-1.383,4.037-2.556,4.369A9.962,9.962,0,0,1,0,1.526Z" transform="translate(-7657 369.548)" fill="#9ac2cc" stroke="rgba(0,0,0,0)" stroke-miterlimit="10" stroke-width="1"/>
    <path id="交叉_13" data-name="交叉 13" d="M0,1.8V.088C.75-.045,4.758-.551,4.758,3.815c0,2.914-1.282,3.959-2.424,4.329A9.958,9.958,0,0,1,0,1.8Z" transform="translate(-7657 369.277)" stroke="rgba(0,0,0,0)" stroke-miterlimit="10" stroke-width="1" fill="url(#linear-gradient-3)"/>
    <rect id="矩形_2932" data-name="矩形 2932" width="3.403" height="14.777" transform="translate(-7638.66 366.223)" fill="#3b546a"/>
    <rect id="矩形_2933" data-name="矩形 2933" width="3.403" height="14.777" transform="translate(-7638.862 366.223)" fill="#9ac2cc"/>
    <g id="组_1108" data-name="组 1108" transform="translate(-7637.598 368.518)">
      <g id="组_4" data-name="组 4">
        <g id="组_3" data-name="组 3">
          <path id="路径_7" data-name="路径 7" d="M497.278,705.237l-.042.086-.083-.014v.418h-.093v-.033h-.429v.033h-.093v-.413l-.083.016-.042-.086a1.391,1.391,0,0,0,.343-.086.71.71,0,0,1-.119-.094.921.921,0,0,1-.122.092l-.063-.076a.8.8,0,0,0,.252-.232l.1.022-.032.047h.363v.074a.826.826,0,0,1-.189.166A1.5,1.5,0,0,0,497.278,705.237Zm-.429-.026a1.374,1.374,0,0,1-.265.094h.548A1.226,1.226,0,0,1,496.849,705.211Zm-.05.248v-.074h-.168v.074Zm0,.153v-.076h-.168v.076Zm.049-.5a.835.835,0,0,0,.159-.112H496.7l0,0A.654.654,0,0,0,496.848,705.115Zm.043.344h.17v-.074h-.17Zm.17.153v-.076h-.17v.076Z" transform="translate(-496.407 -704.849)" fill="#8aacb2"/>
          <path id="路径_8" data-name="路径 8" d="M496.617,729.173v-.085h.1v.085h.205v.045a1.136,1.136,0,0,0,.1-.112l.072.054a1.236,1.236,0,0,1-.158.176h.192v.093h-.306c-.035.024-.07.049-.108.071h.363v.087h-.466l-.023.069h.446a.535.535,0,0,1-.046.248.186.186,0,0,1-.137.039.883.883,0,0,1-.118-.008l-.031-.085c.047,0,.09.007.127.007s.074-.007.085-.02a.245.245,0,0,0,.022-.1h-.465l.039-.139a2.046,2.046,0,0,1-.2.071l-.04-.088a1.721,1.721,0,0,0,.377-.158h-.339v-.093h.31v-.073h-.241v-.09Zm.256.09h-.158v.073h.07C496.817,729.312,496.846,729.288,496.873,729.263Z" transform="translate(-496.268 -728.141)" fill="#8aacb2"/>
          <path id="路径_9" data-name="路径 9" d="M496.632,753.238a.859.859,0,0,1-.106.143c.006.011.01.023.015.034a1.054,1.054,0,0,1,.045.323c0,.154-.02.246-.057.278a.143.143,0,0,1-.088.025l-.079,0-.029-.091a.714.714,0,0,0,.086.007.055.055,0,0,0,.047-.016.457.457,0,0,0,.026-.205c0-.023,0-.044,0-.063a.673.673,0,0,1-.143.144l-.055-.082a.633.633,0,0,0,.186-.188.483.483,0,0,0-.022-.09l0,0c-.031.024-.067.051-.108.079l-.053-.085a.554.554,0,0,0,.116-.079.52.52,0,0,0-.092-.106l.077-.06a.693.693,0,0,1,.082.1.923.923,0,0,0,.077-.109Zm.185-.052v.1h.135v-.1h.092v.1h.115v.091h-.115v.091h-.092v-.091h-.135v.09h-.092v-.09h-.114v-.091h.114v-.1Zm.316.863h-.094v-.035h-.307v.035h-.094v-.555h.494Zm-.292-.337v-.128h-.109v.128Zm0,.212V753.8h-.109v.125Zm.09-.212h.108v-.128h-.108Zm.108.212V753.8h-.108v.125Z" transform="translate(-496.291 -751.297)" fill="#8aacb2"/>
          <path id="路径_10" data-name="路径 10" d="M496.5,776.983a1.527,1.527,0,0,1-.12.263l.084-.012.046-.094.084.032a2.37,2.37,0,0,1-.175.3,1.391,1.391,0,0,0,.135-.039v.086a1.275,1.275,0,0,1-.247.058l-.025-.086a.124.124,0,0,0,.043-.027.838.838,0,0,0,.094-.143l-.125.019-.024-.087a.084.084,0,0,0,.04-.036,1.9,1.9,0,0,0,.1-.268Zm.019.709a1.006,1.006,0,0,1-.219.081l-.012-.094a1.037,1.037,0,0,0,.232-.077Zm.481.123-.017-.061v.045h-.067v-.181h-.046v.181H496.8v-.181h-.05v.2h-.08v-.33a1.017,1.017,0,0,1-.11.329l-.07-.063a.96.96,0,0,0,.108-.478v-.239h.2a.677.677,0,0,0-.036-.078l.1-.017c.01.028.021.06.031.095h.21v.262h-.422l0,.057h.428v.383a.066.066,0,0,1-.074.074Zm-.311-.691v.094h.332v-.094Zm.113.415v-.1h-.05v.1Zm.068,0h.046v-.1h-.046Zm.113,0h.051v-.1h-.051Zm0,.2.033,0c.011,0,.018-.007.018-.021v-.105h-.051Z" transform="translate(-496.268 -774.128)" fill="#8aacb2"/>
          <path id="路径_11" data-name="路径 11" d="M496.658,801.4v.126h.093v.088h-.093v.1l.105-.022v.09l-.105.024v.2h-.095v-.182c-.052.009-.106.017-.162.024l-.013-.094c.062-.008.12-.015.175-.024v-.116h-.142l-.021-.086a1.121,1.121,0,0,0,.061-.178H496.4v-.092h.087c.008-.038.017-.079.024-.121l.093.014c-.008.037-.014.073-.022.107h.184v.092h-.206a1.731,1.731,0,0,1-.057.176h.064V801.4Zm.1.1v-.084h.492v.084h-.063v.3l.072-.011v.083l-.072.013v.113h-.094v-.1c-.107.015-.223.029-.348.04l-.012-.087.082-.007V801.5Zm.444-.339v.216h-.39v-.216Zm-.093.077h-.2v.066h.2Zm-.2.262v.056h.187V801.5Zm.187.192v-.057h-.187v.057Zm0,.125v-.046h-.187v.068Z" transform="translate(-496.384 -797.375)" fill="#8aacb2"/>
          <path id="路径_12" data-name="路径 12" d="M496.785,825.313h.077a1.139,1.139,0,0,0,.056-.15l.089.031a.842.842,0,0,1-.05.119h.1v.094h-.473v-.094h.112a.857.857,0,0,0-.047-.113l.088-.032A1,1,0,0,1,496.785,825.313Zm-.02-.256c-.008-.026-.017-.05-.026-.071l.1-.017c.008.026.015.056.023.088h.183v.094H496.6v-.094Zm.253.784h-.1v-.046h-.2v.046h-.1v-.372h.389Zm-.1-.139v-.141h-.2v.141Zm.5-.7v.073a2.81,2.81,0,0,1-.095.265.377.377,0,0,1,.1.208.2.2,0,0,1-.038.137.238.238,0,0,1-.159.038l-.031-.1c.037,0,.068.007.093.007a.035.035,0,0,0,.031-.017.231.231,0,0,0,.007-.062.377.377,0,0,0-.112-.208,2.285,2.285,0,0,0,.091-.248h-.129v.746h-.095V825Z" transform="translate(-496.569 -820.276)" fill="#8aacb2"/>
        </g>
      </g>
    </g>
    <path id="路径_680" data-name="路径 680" d="M.23.188V.38H.744V.536H.082v.2H.8A3.678,3.678,0,0,1,0,1.07l.086.188a4.33,4.33,0,0,0,.42-.152l-.084.3h.992a.522.522,0,0,1-.046.206c-.024.028-.086.042-.182.042-.08,0-.172-.006-.272-.016l.066.182a1.886,1.886,0,0,0,.252.016.4.4,0,0,0,.292-.082,1.138,1.138,0,0,0,.1-.53H.67l.05-.148h.994V.886H.94c.08-.048.156-.1.23-.152h.652v-.2h-.41A2.61,2.61,0,0,0,1.748.16L1.594.046a2.437,2.437,0,0,1-.2.238v-.1H.952V.006H.744V.188ZM1.1.536H.952V.38H1.29C1.232.432,1.17.484,1.1.536ZM3.446.284V.776H3.2V.284Zm0,.694v.878h.2V.978h.216v-.2H3.648V.284h.16v-.2H2.842v.2h.152V.776H2.8v.2h.194a1,1,0,0,1-.3.748l.158.14A1.229,1.229,0,0,0,3.2.978ZM2.274.3a1.838,1.838,0,0,1-.284.7l.11.18c.028-.04.058-.082.086-.126V1.79h.192V1.648h.34V.69H2.364A2.369,2.369,0,0,0,2.472.3h.3V.1H2.06V.3Zm.1,1.17V.874h.148v.592ZM4.734.01,4.59.148A2.508,2.508,0,0,1,4.978.52L5.122.376A3.017,3.017,0,0,0,4.734.01ZM5.32.076A2.849,2.849,0,0,1,4.734,1.22V.428h-.21v1a1.987,1.987,0,0,1-.422.262l.12.176a2.2,2.2,0,0,0,.326-.186.2.2,0,0,0,.21.112h.414a.282.282,0,0,0,.214-.076,1.065,1.065,0,0,0,.1-.494l-.2-.066a.993.993,0,0,1-.054.378.111.111,0,0,1-.1.058H4.822c-.052,0-.08-.022-.086-.064A2.943,2.943,0,0,0,5.512.16ZM4.222.6a3.254,3.254,0,0,1-.22.77l.182.112a3.607,3.607,0,0,0,.24-.842Zm1.36.03L5.384.7a5.46,5.46,0,0,1,.3.778l.188-.084A5.7,5.7,0,0,0,5.582.634ZM7.06,0a.8.8,0,0,1-.32.4L6.858.56c.036-.026.07-.054.1-.082a.812.812,0,0,0,.146.156,2.651,2.651,0,0,1-.37.11l.08.188A2.349,2.349,0,0,0,7.3.762,1.956,1.956,0,0,0,7.772.93L7.856.736a2.222,2.222,0,0,1-.35-.1.8.8,0,0,0,.25-.3V.152H7.212A1.314,1.314,0,0,0,7.264.03Zm.032.338,0,0h.434a.871.871,0,0,1-.224.2A.74.74,0,0,1,7.092.342ZM6.408,0A2.214,2.214,0,0,1,6,.806l.064.208c.056-.062.11-.126.16-.192v1.04h.2V.508A2.194,2.194,0,0,0,6.6.09Zm.13.37V1.5h.19V.37Zm.806.482a1.4,1.4,0,0,1-.22.122,1.693,1.693,0,0,1-.3.088l.1.166A3.253,3.253,0,0,0,7.258,1.1,1.274,1.274,0,0,0,7.492.946ZM7.538,1a1.312,1.312,0,0,1-.666.34l.082.178a1.367,1.367,0,0,0,.72-.414Zm-.66.876a2.452,2.452,0,0,0,.564-.228,1.145,1.145,0,0,0,.406-.36L7.7,1.18a1.226,1.226,0,0,1-.362.306,2.367,2.367,0,0,1-.548.2Z" transform="translate(-7631.942 369.988) rotate(5.207)" fill="#9ac2cc"/>
    <path id="交叉_10" data-name="交叉 10" d="M0,3.816C0-1,4.878.111,4.878.111A2.555,2.555,0,0,1,5.363.3V1.635A9.963,9.963,0,0,1,2.8,8.245C1.585,7.985,0,7.056,0,3.816Z" transform="translate(-7622.363 369.439)" fill="#9ac2cc" stroke="rgba(0,0,0,0)" stroke-miterlimit="10" stroke-width="1"/>
    <path id="交叉_9" data-name="交叉 9" d="M0,3.815C0-1,4.878.111,4.878.111c.069.02.136.041.2.065V1.723a9.962,9.962,0,0,1-2.4,6.495C1.485,7.922,0,6.951,0,3.815Z" transform="translate(-7622.078 369.277)" fill="#3b546a" stroke="rgba(0,0,0,0)" stroke-miterlimit="10" stroke-width="1"/>
  </g>
</svg>
