<svg xmlns="http://www.w3.org/2000/svg" width="12" height="12" viewBox="0 0 12 12">
  <path id="说明_1_" data-name="说明 (1)" d="M6,12a6,6,0,1,1,6-6,6,6,0,0,1-6,6ZM6,.857A5.143,5.143,0,1,0,11.143,6,5.143,5.143,0,0,0,6,.857ZM7.534,5.877q-.19.193-.686.65a2.824,2.824,0,0,0-.218.226.914.914,0,0,0-.122.178.878.878,0,0,0-.062.162q-.021.081-.066.285a.451.451,0,0,1-.476.429.477.477,0,0,1-.35-.141.567.567,0,0,1-.142-.419,1.593,1.593,0,0,1,.1-.6A1.548,1.548,0,0,1,5.793,6.2a6.484,6.484,0,0,1,.464-.459q.257-.233.37-.351a1.18,1.18,0,0,0,.192-.264A.657.657,0,0,0,6.9,4.809a.747.747,0,0,0-.238-.561.851.851,0,0,0-.614-.228.831.831,0,0,0-.648.231,1.863,1.863,0,0,0-.352.679q-.135.47-.514.469a.5.5,0,0,1-.378-.164A.514.514,0,0,1,4,4.88a1.543,1.543,0,0,1,.244-.8,1.9,1.9,0,0,1,.712-.67,2.174,2.174,0,0,1,1.092-.266,2.262,2.262,0,0,1,1.024.222,1.678,1.678,0,0,1,.686.6A1.521,1.521,0,0,1,8,4.8a1.324,1.324,0,0,1-.138.619,1.9,1.9,0,0,1-.328.459ZM5.952,8.191a.566.566,0,0,1,.425.175.611.611,0,0,1,.171.44.591.591,0,0,1-.6.623.616.616,0,0,1-.429-.164.586.586,0,0,1-.182-.459.6.6,0,0,1,.182-.441.584.584,0,0,1,.429-.178Z" fill="#c8c8d3"/>
</svg>
