<svg xmlns="http://www.w3.org/2000/svg" width="38.673" height="35.253" viewBox="0 0 38.673 35.253">
  <defs>
    <style>
      .cls-1 {
        fill: #e5c285;
      }

      .cls-2 {
        fill: #fff;
        font-size: 16px;
        font-family: '\.PingFang-SC-Medium', '\.PingFang SC';
        font-weight: 500;
      }
    </style>
  </defs>
  <g id="组_644" data-name="组 644" transform="translate(-337.853 -857)">
    <path id="排行" class="cls-1" d="M32.428,30.421H6.2a1.522,1.522,0,0,1-1.447-1.085L2.143,20.951.178,14.639a3.465,3.465,0,0,1,1.319-3.9,3.261,3.261,0,0,1,4.021.208l4.945,4.221,5.75-13.133A3.306,3.306,0,0,1,19.273,0h.034a3.319,3.319,0,0,1,3.058,2.09l5.441,13.085,5.411-4.46a3.279,3.279,0,0,1,4-.155,3.47,3.47,0,0,1,1.3,3.882l-4.647,14.9a1.525,1.525,0,0,1-1.447,1.085Zm-1.991,4.832H8.191a1.56,1.56,0,0,1,0-3.118H30.437a1.56,1.56,0,0,1,0,3.118Zm0,0" transform="translate(337.842 857)"/>
    <text id="_1" data-name="1" class="cls-2" transform="translate(352.189 882)"><tspan x="0" y="0">1</tspan></text>
  </g>
</svg>
