<?xml version="1.0" standalone="no"?><!DOCTYPE svg PUBLIC "-//W3C//DTD SVG 1.1//EN" "http://www.w3.org/Graphics/SVG/1.1/DTD/svg11.dtd"><svg t="1629080297171" class="icon" viewBox="0 0 1024 1024" version="1.1" xmlns="http://www.w3.org/2000/svg" p-id="4541" xmlns:xlink="http://www.w3.org/1999/xlink" width="200" height="200"><defs><style type="text/css"></style></defs><path d="M832.403968 1024H191.596032A191.859848 191.859848 0 0 1-0.065954 832.338014V191.596032A191.859848 191.859848 0 0 1 191.596032-0.065954h640.807936a191.859848 191.859848 0 0 1 191.661986 191.661986v76.57246a53.15883 53.15883 0 0 1-106.383615 0V191.596032a85.344326 85.344326 0 0 0-85.278371-85.344325H191.596032a85.344326 85.344326 0 0 0-85.278371 85.344325v640.741982a85.344326 85.344326 0 0 0 85.278371 85.344325h640.807936a85.344326 85.344326 0 0 0 85.278371-85.344325V518.199665a53.15883 53.15883 0 0 1 106.383615 0v314.33621a191.859848 191.859848 0 0 1-191.661986 191.464125z" fill="#606072" p-id="4542"></path><path d="M439.846451 720.612134a100.777534 100.777534 0 0 1-100.249903-100.381811V403.637769a100.249903 100.249903 0 0 1 150.374855-86.729357l187.30903 108.164369a100.249903 100.249903 0 0 1 0 173.590622l-187.30903 108.16437a99.722272 99.722272 0 0 1-50.124952 13.784361z m6.133711-306.157928v195.223496l168.973851-97.545794z" fill="#606072" p-id="4543"></path></svg>